<svg xmlns="http://www.w3.org/2000/svg" width="375" viewBox="0 0 375 375" height="375" version="1.0"><path fill="#F1BC19" d="M 317.050781 5.507812 C 316.734375 5.507812 316.425781 5.539062 316.117188 5.601562 C 315.808594 5.660156 315.507812 5.75 315.21875 5.871094 C 314.925781 5.992188 314.652344 6.140625 314.390625 6.316406 C 314.128906 6.488281 313.886719 6.6875 313.664062 6.910156 C 313.441406 7.132812 313.242188 7.375 313.066406 7.636719 C 312.894531 7.898438 312.746094 8.171875 312.625 8.464844 C 312.503906 8.753906 312.414062 9.054688 312.351562 9.363281 C 312.292969 9.671875 312.261719 9.984375 312.261719 10.296875 C 312.261719 10.613281 312.292969 10.921875 312.351562 11.230469 C 312.414062 11.539062 312.503906 11.839844 312.625 12.128906 C 312.746094 12.421875 312.894531 12.695312 313.066406 12.957031 C 313.242188 13.21875 313.441406 13.460938 313.664062 13.683594 C 313.886719 13.90625 314.128906 14.105469 314.390625 14.277344 C 314.652344 14.453125 314.925781 14.601562 315.21875 14.722656 C 315.507812 14.84375 315.808594 14.933594 316.117188 14.996094 C 316.425781 15.054688 316.734375 15.085938 317.050781 15.085938 C 317.363281 15.085938 317.675781 15.054688 317.984375 14.996094 C 318.292969 14.933594 318.59375 14.84375 318.882812 14.722656 C 319.171875 14.601562 319.449219 14.453125 319.710938 14.277344 C 319.972656 14.105469 320.214844 13.90625 320.4375 13.683594 C 320.660156 13.460938 320.855469 13.21875 321.03125 12.957031 C 321.207031 12.695312 321.355469 12.421875 321.472656 12.128906 C 321.59375 11.839844 321.6875 11.539062 321.746094 11.230469 C 321.808594 10.921875 321.839844 10.613281 321.839844 10.296875 C 321.839844 9.984375 321.808594 9.671875 321.746094 9.363281 C 321.6875 9.054688 321.59375 8.753906 321.472656 8.464844 C 321.355469 8.171875 321.207031 7.898438 321.03125 7.636719 C 320.855469 7.375 320.660156 7.132812 320.4375 6.910156 C 320.214844 6.6875 319.972656 6.488281 319.710938 6.316406 C 319.449219 6.140625 319.171875 5.992188 318.882812 5.871094 C 318.59375 5.75 318.292969 5.660156 317.984375 5.601562 C 317.675781 5.539062 317.363281 5.507812 317.050781 5.507812 Z M 317.050781 5.507812"/><path fill="#E4E4F9" d="M 187.738281 10.296875 C 184.839844 10.296875 181.941406 10.367188 179.042969 10.511719 C 176.148438 10.652344 173.257812 10.867188 170.371094 11.148438 C 167.484375 11.433594 164.605469 11.789062 161.738281 12.214844 C 158.871094 12.640625 156.011719 13.136719 153.167969 13.703125 C 150.324219 14.269531 147.496094 14.902344 144.683594 15.609375 C 141.871094 16.3125 139.074219 17.085938 136.300781 17.925781 C 133.523438 18.769531 130.773438 19.679688 128.042969 20.65625 C 125.3125 21.632812 122.605469 22.675781 119.925781 23.785156 C 117.246094 24.894531 114.597656 26.070312 111.976562 27.308594 C 109.355469 28.550781 106.765625 29.855469 104.207031 31.222656 C 101.648438 32.589844 99.125 34.015625 96.640625 35.507812 C 94.152344 37 91.703125 38.550781 89.289062 40.160156 C 86.878906 41.773438 84.507812 43.441406 82.179688 45.167969 C 79.851562 46.898438 77.566406 48.679688 75.324219 50.519531 C 73.082031 52.359375 70.886719 54.253906 68.738281 56.203125 C 66.589844 58.148438 64.488281 60.148438 62.4375 62.199219 C 60.386719 64.25 58.386719 66.347656 56.441406 68.496094 C 54.492188 70.644531 52.597656 72.839844 50.757812 75.082031 C 48.917969 77.324219 47.136719 79.609375 45.410156 81.941406 C 43.679688 84.269531 42.011719 86.640625 40.402344 89.050781 C 38.789062 91.460938 37.238281 93.910156 35.746094 96.398438 C 34.257812 98.886719 32.828125 101.410156 31.460938 103.96875 C 30.09375 106.523438 28.789062 109.113281 27.550781 111.734375 C 26.308594 114.359375 25.136719 117.007812 24.023438 119.6875 C 22.914062 122.367188 21.871094 125.070312 20.894531 127.800781 C 19.917969 130.53125 19.007812 133.285156 18.167969 136.0625 C 17.324219 138.835938 16.550781 141.628906 15.847656 144.441406 C 15.140625 147.257812 14.507812 150.085938 13.941406 152.929688 C 13.375 155.773438 12.878906 158.628906 12.453125 161.5 C 12.027344 164.367188 11.675781 167.246094 11.390625 170.132812 C 11.105469 173.015625 10.890625 175.910156 10.75 178.804688 C 10.609375 181.703125 10.535156 184.601562 10.535156 187.5 C 10.535156 190.398438 10.609375 193.296875 10.75 196.195312 C 10.890625 199.089844 11.105469 201.984375 11.390625 204.867188 C 11.675781 207.753906 12.027344 210.632812 12.453125 213.5 C 12.878906 216.371094 13.375 219.226562 13.941406 222.070312 C 14.507812 224.914062 15.140625 227.742188 15.847656 230.558594 C 16.550781 233.371094 17.324219 236.164062 18.167969 238.9375 C 19.007812 241.714844 19.917969 244.46875 20.894531 247.199219 C 21.871094 249.929688 22.914062 252.632812 24.023438 255.3125 C 25.136719 257.992188 26.308594 260.640625 27.550781 263.265625 C 28.789062 265.886719 30.09375 268.476562 31.460938 271.03125 C 32.828125 273.589844 34.257812 276.113281 35.746094 278.601562 C 37.238281 281.089844 38.789062 283.539062 40.402344 285.949219 C 42.011719 288.359375 43.679688 290.730469 45.410156 293.058594 C 47.136719 295.390625 48.917969 297.675781 50.757812 299.917969 C 52.597656 302.15625 54.492188 304.351562 56.441406 306.503906 C 58.386719 308.652344 60.386719 310.75 62.4375 312.800781 C 64.488281 314.851562 66.589844 316.851562 68.738281 318.796875 C 70.886719 320.746094 73.082031 322.640625 75.324219 324.480469 C 77.566406 326.320312 79.851562 328.101562 82.179688 329.832031 C 84.507812 331.558594 86.878906 333.226562 89.289062 334.839844 C 91.703125 336.449219 94.152344 338 96.640625 339.492188 C 99.125 340.984375 101.648438 342.410156 104.207031 343.777344 C 106.765625 345.144531 109.355469 346.449219 111.976562 347.691406 C 114.597656 348.929688 117.246094 350.105469 119.925781 351.214844 C 122.605469 352.324219 125.3125 353.367188 128.042969 354.34375 C 130.773438 355.320312 133.523438 356.230469 136.300781 357.074219 C 139.074219 357.914062 141.871094 358.6875 144.683594 359.390625 C 147.496094 360.097656 150.324219 360.730469 153.167969 361.296875 C 156.011719 361.863281 158.871094 362.359375 161.738281 362.785156 C 164.605469 363.210938 167.484375 363.566406 170.371094 363.851562 C 173.257812 364.132812 176.148438 364.347656 179.042969 364.488281 C 181.941406 364.632812 184.839844 364.703125 187.738281 364.703125 C 190.640625 364.703125 193.539062 364.632812 196.433594 364.488281 C 199.332031 364.347656 202.222656 364.132812 205.109375 363.851562 C 207.996094 363.566406 210.871094 363.210938 213.742188 362.785156 C 216.609375 362.359375 219.464844 361.863281 222.308594 361.296875 C 225.15625 360.730469 227.984375 360.097656 230.796875 359.390625 C 233.609375 358.6875 236.402344 357.914062 239.179688 357.074219 C 241.953125 356.230469 244.707031 355.320312 247.4375 354.34375 C 250.167969 353.367188 252.871094 352.324219 255.550781 351.214844 C 258.230469 350.105469 260.882812 348.929688 263.503906 347.691406 C 266.125 346.449219 268.714844 345.144531 271.273438 343.777344 C 273.828125 342.410156 276.351562 340.984375 278.839844 339.492188 C 281.328125 338 283.777344 336.449219 286.1875 334.839844 C 288.597656 333.226562 290.96875 331.558594 293.300781 329.832031 C 295.628906 328.101562 297.914062 326.320312 300.15625 324.480469 C 302.398438 322.640625 304.59375 320.746094 306.742188 318.796875 C 308.890625 316.851562 310.988281 314.851562 313.039062 312.800781 C 315.089844 310.75 317.089844 308.652344 319.039062 306.503906 C 320.984375 304.351562 322.878906 302.15625 324.71875 299.917969 C 326.558594 297.675781 328.34375 295.390625 330.070312 293.058594 C 331.796875 290.730469 333.46875 288.359375 335.078125 285.949219 C 336.691406 283.539062 338.242188 281.089844 339.730469 278.601562 C 341.222656 276.113281 342.652344 273.589844 344.019531 271.03125 C 345.386719 268.476562 346.6875 265.886719 347.929688 263.265625 C 349.167969 260.640625 350.34375 257.992188 351.453125 255.3125 C 352.5625 252.632812 353.605469 249.929688 354.582031 247.199219 C 355.5625 244.46875 356.46875 241.714844 357.3125 238.9375 C 358.152344 236.164062 358.925781 233.371094 359.632812 230.558594 C 360.335938 227.742188 360.972656 224.914062 361.539062 222.070312 C 362.101562 219.226562 362.597656 216.371094 363.023438 213.5 C 363.449219 210.632812 363.804688 207.753906 364.089844 204.867188 C 364.375 201.984375 364.585938 199.089844 364.730469 196.195312 C 364.871094 193.296875 364.941406 190.398438 364.941406 187.5 C 364.941406 184.601562 364.871094 181.703125 364.730469 178.804688 C 364.585938 175.910156 364.375 173.015625 364.089844 170.132812 C 363.804688 167.246094 363.449219 164.367188 363.023438 161.5 C 362.597656 158.628906 362.101562 155.773438 361.539062 152.929688 C 360.972656 150.085938 360.335938 147.257812 359.632812 144.441406 C 358.925781 141.628906 358.152344 138.835938 357.3125 136.0625 C 356.46875 133.285156 355.5625 130.53125 354.582031 127.800781 C 353.605469 125.070312 352.5625 122.367188 351.453125 119.6875 C 350.34375 117.007812 349.167969 114.359375 347.929688 111.734375 C 346.6875 109.113281 345.386719 106.523438 344.019531 103.96875 C 342.652344 101.410156 341.222656 98.886719 339.730469 96.398438 C 338.242188 93.910156 336.691406 91.460938 335.078125 89.050781 C 333.46875 86.640625 331.796875 84.269531 330.070312 81.941406 C 328.34375 79.609375 326.558594 77.324219 324.71875 75.082031 C 322.878906 72.839844 320.984375 70.644531 319.039062 68.496094 C 317.089844 66.347656 315.089844 64.25 313.039062 62.199219 C 310.988281 60.148438 308.890625 58.148438 306.742188 56.203125 C 304.59375 54.253906 302.398438 52.359375 300.15625 50.519531 C 297.914062 48.679688 295.628906 46.898438 293.300781 45.167969 C 290.96875 43.441406 288.597656 41.773438 286.1875 40.160156 C 283.777344 38.550781 281.328125 37 278.839844 35.507812 C 276.351562 34.015625 273.828125 32.589844 271.273438 31.222656 C 268.714844 29.855469 266.125 28.550781 263.503906 27.308594 C 260.882812 26.070312 258.230469 24.894531 255.550781 23.785156 C 252.871094 22.675781 250.167969 21.632812 247.4375 20.65625 C 244.707031 19.679688 241.953125 18.769531 239.179688 17.925781 C 236.402344 17.085938 233.609375 16.3125 230.796875 15.609375 C 227.984375 14.902344 225.15625 14.269531 222.308594 13.703125 C 219.464844 13.136719 216.609375 12.640625 213.742188 12.214844 C 210.871094 11.789062 207.996094 11.433594 205.109375 11.148438 C 202.222656 10.867188 199.332031 10.652344 196.433594 10.511719 C 193.539062 10.367188 190.640625 10.296875 187.738281 10.296875 Z M 187.738281 10.296875"/><path fill="#F1BC19" d="M 345.785156 0.71875 C 345.15625 0.71875 344.53125 0.75 343.90625 0.8125 C 343.285156 0.871094 342.664062 0.964844 342.046875 1.085938 C 341.433594 1.207031 340.824219 1.359375 340.222656 1.542969 C 339.625 1.726562 339.035156 1.9375 338.453125 2.175781 C 337.875 2.417969 337.308594 2.683594 336.753906 2.980469 C 336.203125 3.277344 335.664062 3.597656 335.140625 3.945312 C 334.621094 4.296875 334.117188 4.667969 333.632812 5.066406 C 333.148438 5.464844 332.683594 5.886719 332.238281 6.328125 C 331.796875 6.773438 331.375 7.238281 330.976562 7.722656 C 330.578125 8.207031 330.207031 8.710938 329.855469 9.230469 C 329.507812 9.753906 329.1875 10.292969 328.890625 10.84375 C 328.59375 11.398438 328.328125 11.964844 328.085938 12.542969 C 327.847656 13.125 327.636719 13.714844 327.453125 14.316406 C 327.269531 14.914062 327.117188 15.523438 326.996094 16.136719 C 326.875 16.753906 326.78125 17.375 326.71875 17.996094 C 326.660156 18.621094 326.628906 19.25 326.628906 19.875 C 326.628906 20.503906 326.660156 21.128906 326.71875 21.753906 C 326.78125 22.378906 326.875 22.996094 326.996094 23.613281 C 327.117188 24.226562 327.269531 24.835938 327.453125 25.4375 C 327.636719 26.035156 327.847656 26.625 328.085938 27.207031 C 328.328125 27.785156 328.59375 28.351562 328.890625 28.90625 C 329.1875 29.460938 329.507812 29.996094 329.855469 30.519531 C 330.207031 31.039062 330.578125 31.542969 330.976562 32.027344 C 331.375 32.511719 331.796875 32.976562 332.238281 33.421875 C 332.683594 33.867188 333.148438 34.285156 333.632812 34.683594 C 334.117188 35.082031 334.621094 35.457031 335.140625 35.804688 C 335.664062 36.152344 336.203125 36.476562 336.753906 36.769531 C 337.308594 37.066406 337.875 37.335938 338.453125 37.574219 C 339.035156 37.8125 339.625 38.027344 340.222656 38.207031 C 340.824219 38.390625 341.433594 38.542969 342.046875 38.664062 C 342.664062 38.785156 343.285156 38.878906 343.90625 38.941406 C 344.53125 39 345.15625 39.03125 345.785156 39.03125 C 346.414062 39.03125 347.039062 39 347.664062 38.941406 C 348.289062 38.878906 348.90625 38.785156 349.523438 38.664062 C 350.136719 38.542969 350.746094 38.390625 351.347656 38.207031 C 351.945312 38.027344 352.535156 37.8125 353.117188 37.574219 C 353.695312 37.335938 354.261719 37.066406 354.816406 36.769531 C 355.371094 36.476562 355.90625 36.152344 356.429688 35.804688 C 356.949219 35.457031 357.453125 35.082031 357.9375 34.683594 C 358.421875 34.285156 358.886719 33.867188 359.332031 33.421875 C 359.773438 32.976562 360.195312 32.511719 360.59375 32.027344 C 360.992188 31.542969 361.367188 31.039062 361.714844 30.519531 C 362.0625 29.996094 362.382812 29.460938 362.679688 28.90625 C 362.976562 28.351562 363.242188 27.785156 363.484375 27.207031 C 363.722656 26.625 363.933594 26.035156 364.117188 25.4375 C 364.300781 24.835938 364.453125 24.226562 364.574219 23.613281 C 364.695312 22.996094 364.789062 22.378906 364.851562 21.753906 C 364.910156 21.128906 364.941406 20.503906 364.941406 19.875 C 364.941406 19.25 364.910156 18.621094 364.851562 17.996094 C 364.789062 17.375 364.695312 16.753906 364.574219 16.136719 C 364.453125 15.523438 364.300781 14.914062 364.117188 14.316406 C 363.933594 13.714844 363.722656 13.125 363.484375 12.542969 C 363.242188 11.964844 362.976562 11.398438 362.679688 10.84375 C 362.382812 10.292969 362.0625 9.753906 361.714844 9.230469 C 361.367188 8.710938 360.992188 8.207031 360.59375 7.722656 C 360.195312 7.238281 359.773438 6.773438 359.332031 6.328125 C 358.886719 5.886719 358.421875 5.464844 357.9375 5.066406 C 357.453125 4.667969 356.949219 4.296875 356.429688 3.945312 C 355.90625 3.597656 355.371094 3.277344 354.816406 2.980469 C 354.261719 2.683594 353.695312 2.417969 353.117188 2.175781 C 352.535156 1.9375 351.945312 1.726562 351.347656 1.542969 C 350.746094 1.359375 350.136719 1.207031 349.523438 1.085938 C 348.90625 0.964844 348.289062 0.871094 347.664062 0.8125 C 347.039062 0.75 346.414062 0.71875 345.785156 0.71875 Z M 345.785156 0.71875"/><path fill="#8889B9" d="M 364.941406 53.398438 C 364.3125 53.398438 363.691406 53.460938 363.074219 53.585938 C 362.457031 53.707031 361.859375 53.890625 361.277344 54.128906 C 360.695312 54.371094 360.144531 54.664062 359.621094 55.015625 C 359.097656 55.363281 358.613281 55.761719 358.167969 56.207031 C 357.726562 56.652344 357.328125 57.132812 356.976562 57.65625 C 356.628906 58.179688 356.332031 58.730469 356.09375 59.3125 C 355.851562 59.894531 355.671875 60.492188 355.546875 61.109375 C 355.425781 61.726562 355.363281 62.351562 355.363281 62.980469 C 355.363281 63.609375 355.425781 64.230469 355.546875 64.847656 C 355.671875 65.464844 355.851562 66.0625 356.09375 66.644531 C 356.332031 67.226562 356.628906 67.777344 356.976562 68.300781 C 357.328125 68.824219 357.726562 69.308594 358.167969 69.753906 C 358.613281 70.195312 359.097656 70.59375 359.621094 70.941406 C 360.144531 71.292969 360.695312 71.585938 361.277344 71.828125 C 361.859375 72.070312 362.457031 72.25 363.074219 72.375 C 363.691406 72.496094 364.3125 72.558594 364.941406 72.558594 C 365.570312 72.558594 366.195312 72.496094 366.8125 72.375 C 367.429688 72.25 368.027344 72.070312 368.609375 71.828125 C 369.1875 71.585938 369.742188 71.292969 370.265625 70.941406 C 370.785156 70.59375 371.269531 70.195312 371.714844 69.753906 C 372.160156 69.308594 372.558594 68.824219 372.90625 68.300781 C 373.257812 67.777344 373.550781 67.226562 373.792969 66.644531 C 374.03125 66.0625 374.214844 65.464844 374.335938 64.847656 C 374.460938 64.230469 374.519531 63.609375 374.519531 62.980469 C 374.519531 62.351562 374.460938 61.726562 374.335938 61.109375 C 374.214844 60.492188 374.03125 59.894531 373.792969 59.3125 C 373.550781 58.730469 373.257812 58.179688 372.90625 57.65625 C 372.558594 57.132812 372.160156 56.652344 371.714844 56.207031 C 371.269531 55.761719 370.785156 55.363281 370.265625 55.015625 C 369.742188 54.664062 369.1875 54.371094 368.609375 54.128906 C 368.027344 53.890625 367.429688 53.707031 366.8125 53.585938 C 366.195312 53.460938 365.570312 53.398438 364.941406 53.398438 Z M 364.941406 53.398438"/><path fill="#FBCD59" d="M 336.207031 302.441406 C 335.578125 302.441406 334.953125 302.503906 334.339844 302.625 C 333.722656 302.75 333.121094 302.929688 332.542969 303.171875 C 331.960938 303.414062 331.410156 303.707031 330.886719 304.058594 C 330.363281 304.40625 329.878906 304.804688 329.433594 305.246094 C 328.988281 305.691406 328.59375 306.175781 328.242188 306.699219 C 327.894531 307.222656 327.597656 307.773438 327.355469 308.355469 C 327.117188 308.9375 326.933594 309.535156 326.8125 310.152344 C 326.691406 310.769531 326.628906 311.390625 326.628906 312.019531 C 326.628906 312.648438 326.691406 313.273438 326.8125 313.890625 C 326.933594 314.507812 327.117188 315.105469 327.355469 315.6875 C 327.597656 316.269531 327.894531 316.820312 328.242188 317.34375 C 328.59375 317.867188 328.988281 318.347656 329.433594 318.792969 C 329.878906 319.238281 330.363281 319.636719 330.886719 319.984375 C 331.410156 320.335938 331.960938 320.628906 332.542969 320.871094 C 333.121094 321.109375 333.722656 321.292969 334.339844 321.414062 C 334.953125 321.539062 335.578125 321.597656 336.207031 321.597656 C 336.835938 321.597656 337.457031 321.539062 338.074219 321.414062 C 338.691406 321.292969 339.292969 321.109375 339.871094 320.871094 C 340.453125 320.628906 341.003906 320.335938 341.527344 319.984375 C 342.050781 319.636719 342.535156 319.238281 342.980469 318.792969 C 343.425781 318.347656 343.820312 317.867188 344.171875 317.34375 C 344.519531 316.820312 344.816406 316.269531 345.054688 315.6875 C 345.296875 315.105469 345.480469 314.507812 345.601562 313.890625 C 345.722656 313.273438 345.785156 312.648438 345.785156 312.019531 C 345.785156 311.390625 345.722656 310.769531 345.601562 310.152344 C 345.480469 309.535156 345.296875 308.9375 345.054688 308.355469 C 344.816406 307.773438 344.519531 307.222656 344.171875 306.699219 C 343.820312 306.175781 343.425781 305.691406 342.980469 305.246094 C 342.535156 304.804688 342.050781 304.40625 341.527344 304.058594 C 341.003906 303.707031 340.453125 303.414062 339.871094 303.171875 C 339.292969 302.929688 338.691406 302.75 338.074219 302.625 C 337.457031 302.503906 336.835938 302.441406 336.207031 302.441406 Z M 20.113281 230.601562 C 19.488281 230.601562 18.863281 230.632812 18.238281 230.695312 C 17.613281 230.757812 16.992188 230.847656 16.378906 230.972656 C 15.761719 231.09375 15.15625 231.246094 14.554688 231.429688 C 13.953125 231.609375 13.363281 231.820312 12.785156 232.0625 C 12.203125 232.300781 11.636719 232.570312 11.085938 232.867188 C 10.53125 233.160156 9.992188 233.484375 9.472656 233.832031 C 8.949219 234.179688 8.445312 234.554688 7.960938 234.953125 C 7.476562 235.351562 7.011719 235.769531 6.570312 236.214844 C 6.125 236.65625 5.703125 237.121094 5.304688 237.605469 C 4.910156 238.09375 4.535156 238.597656 4.1875 239.117188 C 3.835938 239.640625 3.515625 240.175781 3.21875 240.730469 C 2.925781 241.285156 2.65625 241.851562 2.417969 242.429688 C 2.175781 243.007812 1.964844 243.597656 1.78125 244.199219 C 1.601562 244.800781 1.449219 245.40625 1.324219 246.023438 C 1.203125 246.636719 1.113281 247.257812 1.050781 247.882812 C 0.988281 248.507812 0.957031 249.132812 0.957031 249.761719 C 0.957031 250.386719 0.988281 251.015625 1.050781 251.636719 C 1.113281 252.261719 1.203125 252.882812 1.324219 253.496094 C 1.449219 254.113281 1.601562 254.722656 1.78125 255.320312 C 1.964844 255.921875 2.175781 256.511719 2.417969 257.089844 C 2.65625 257.671875 2.925781 258.238281 3.21875 258.792969 C 3.515625 259.34375 3.835938 259.882812 4.1875 260.402344 C 4.535156 260.925781 4.910156 261.429688 5.304688 261.914062 C 5.703125 262.398438 6.125 262.863281 6.570312 263.304688 C 7.011719 263.75 7.476562 264.171875 7.960938 264.570312 C 8.445312 264.96875 8.949219 265.339844 9.472656 265.6875 C 9.992188 266.039062 10.53125 266.359375 11.085938 266.65625 C 11.636719 266.953125 12.203125 267.21875 12.785156 267.460938 C 13.363281 267.699219 13.953125 267.910156 14.554688 268.09375 C 15.15625 268.273438 15.761719 268.425781 16.378906 268.550781 C 16.992188 268.671875 17.613281 268.765625 18.238281 268.824219 C 18.863281 268.886719 19.488281 268.917969 20.113281 268.917969 C 20.742188 268.917969 21.367188 268.886719 21.992188 268.824219 C 22.617188 268.765625 23.238281 268.671875 23.851562 268.550781 C 24.46875 268.425781 25.074219 268.273438 25.675781 268.09375 C 26.277344 267.910156 26.867188 267.699219 27.445312 267.460938 C 28.027344 267.21875 28.59375 266.953125 29.144531 266.65625 C 29.699219 266.359375 30.238281 266.039062 30.757812 265.6875 C 31.28125 265.339844 31.78125 264.96875 32.269531 264.570312 C 32.753906 264.171875 33.21875 263.75 33.660156 263.304688 C 34.105469 262.863281 34.527344 262.398438 34.921875 261.914062 C 35.320312 261.429688 35.695312 260.925781 36.042969 260.402344 C 36.390625 259.882812 36.714844 259.34375 37.011719 258.792969 C 37.304688 258.238281 37.574219 257.671875 37.8125 257.089844 C 38.054688 256.511719 38.265625 255.921875 38.445312 255.320312 C 38.628906 254.722656 38.78125 254.113281 38.902344 253.496094 C 39.027344 252.882812 39.117188 252.261719 39.179688 251.636719 C 39.242188 251.015625 39.273438 250.386719 39.273438 249.761719 C 39.273438 249.132812 39.242188 248.507812 39.179688 247.882812 C 39.117188 247.257812 39.027344 246.636719 38.902344 246.023438 C 38.78125 245.40625 38.628906 244.800781 38.445312 244.199219 C 38.265625 243.597656 38.054688 243.007812 37.8125 242.429688 C 37.574219 241.851562 37.304688 241.285156 37.011719 240.730469 C 36.714844 240.175781 36.390625 239.640625 36.042969 239.117188 C 35.695312 238.597656 35.320312 238.09375 34.921875 237.605469 C 34.527344 237.121094 34.105469 236.65625 33.660156 236.214844 C 33.21875 235.769531 32.753906 235.351562 32.269531 234.953125 C 31.78125 234.554688 31.28125 234.179688 30.757812 233.832031 C 30.238281 233.484375 29.699219 233.160156 29.144531 232.867188 C 28.59375 232.570312 28.027344 232.300781 27.445312 232.0625 C 26.867188 231.820312 26.277344 231.609375 25.675781 231.429688 C 25.074219 231.246094 24.46875 231.09375 23.851562 230.972656 C 23.238281 230.847656 22.617188 230.757812 21.992188 230.695312 C 21.367188 230.632812 20.742188 230.601562 20.113281 230.601562 Z M 20.113281 230.601562"/><path fill="#8889B9" d="M 68.007812 355.125 C 67.378906 355.125 66.753906 355.1875 66.140625 355.308594 C 65.523438 355.429688 64.921875 355.613281 64.34375 355.855469 C 63.761719 356.09375 63.210938 356.390625 62.6875 356.738281 C 62.164062 357.089844 61.679688 357.484375 61.234375 357.929688 C 60.789062 358.375 60.394531 358.859375 60.042969 359.382812 C 59.695312 359.90625 59.398438 360.457031 59.160156 361.039062 C 58.917969 361.617188 58.734375 362.21875 58.613281 362.835938 C 58.492188 363.453125 58.429688 364.074219 58.429688 364.703125 C 58.429688 365.332031 58.492188 365.953125 58.613281 366.570312 C 58.734375 367.1875 58.917969 367.789062 59.160156 368.367188 C 59.398438 368.949219 59.695312 369.5 60.042969 370.023438 C 60.394531 370.546875 60.789062 371.03125 61.234375 371.476562 C 61.679688 371.921875 62.164062 372.316406 62.6875 372.667969 C 63.210938 373.015625 63.761719 373.3125 64.34375 373.550781 C 64.921875 373.792969 65.523438 373.976562 66.140625 374.097656 C 66.753906 374.21875 67.378906 374.28125 68.007812 374.28125 C 68.636719 374.28125 69.257812 374.21875 69.875 374.097656 C 70.492188 373.976562 71.09375 373.792969 71.671875 373.550781 C 72.253906 373.3125 72.804688 373.015625 73.328125 372.667969 C 73.851562 372.316406 74.335938 371.921875 74.78125 371.476562 C 75.226562 371.03125 75.621094 370.546875 75.972656 370.023438 C 76.320312 369.5 76.617188 368.949219 76.855469 368.367188 C 77.097656 367.789062 77.28125 367.1875 77.402344 366.570312 C 77.523438 365.953125 77.585938 365.332031 77.585938 364.703125 C 77.585938 364.074219 77.523438 363.453125 77.402344 362.835938 C 77.28125 362.21875 77.097656 361.617188 76.855469 361.039062 C 76.617188 360.457031 76.320312 359.90625 75.972656 359.382812 C 75.621094 358.859375 75.226562 358.375 74.78125 357.929688 C 74.335938 357.484375 73.851562 357.089844 73.328125 356.738281 C 72.804688 356.390625 72.253906 356.09375 71.671875 355.855469 C 71.09375 355.613281 70.492188 355.429688 69.875 355.308594 C 69.257812 355.1875 68.636719 355.125 68.007812 355.125 Z M 68.007812 355.125"/><path fill="#FFF" d="M 36.878906 182.710938 C 36.089844 182.710938 35.3125 182.789062 34.542969 182.941406 C 33.769531 183.09375 33.023438 183.320312 32.296875 183.621094 C 31.570312 183.921875 30.878906 184.292969 30.226562 184.730469 C 29.570312 185.164062 28.96875 185.660156 28.410156 186.21875 C 27.855469 186.773438 27.359375 187.378906 26.921875 188.03125 C 26.484375 188.6875 26.117188 189.375 25.816406 190.101562 C 25.515625 190.828125 25.289062 191.578125 25.132812 192.347656 C 24.980469 193.117188 24.902344 193.898438 24.902344 194.683594 C 24.902344 195.46875 24.980469 196.25 25.132812 197.019531 C 25.289062 197.789062 25.515625 198.539062 25.816406 199.265625 C 26.117188 199.992188 26.484375 200.683594 26.921875 201.335938 C 27.359375 201.988281 27.855469 202.59375 28.410156 203.148438 C 28.96875 203.707031 29.570312 204.203125 30.226562 204.640625 C 30.878906 205.074219 31.570312 205.445312 32.296875 205.746094 C 33.023438 206.046875 33.769531 206.273438 34.542969 206.425781 C 35.3125 206.582031 36.089844 206.65625 36.878906 206.65625 C 37.664062 206.65625 38.441406 206.582031 39.214844 206.425781 C 39.984375 206.273438 40.734375 206.046875 41.460938 205.746094 C 42.1875 205.445312 42.875 205.074219 43.53125 204.640625 C 44.183594 204.203125 44.789062 203.707031 45.34375 203.148438 C 45.898438 202.59375 46.394531 201.988281 46.832031 201.335938 C 47.269531 200.683594 47.636719 199.992188 47.9375 199.265625 C 48.238281 198.539062 48.46875 197.789062 48.621094 197.019531 C 48.773438 196.25 48.851562 195.46875 48.851562 194.683594 C 48.851562 193.898438 48.773438 193.117188 48.621094 192.347656 C 48.46875 191.578125 48.238281 190.828125 47.9375 190.101562 C 47.636719 189.375 47.269531 188.6875 46.832031 188.03125 C 46.394531 187.378906 45.898438 186.773438 45.34375 186.21875 C 44.789062 185.660156 44.183594 185.164062 43.53125 184.730469 C 42.875 184.292969 42.1875 183.921875 41.460938 183.621094 C 40.734375 183.320312 39.984375 183.09375 39.214844 182.941406 C 38.441406 182.789062 37.664062 182.710938 36.878906 182.710938 Z M 329.023438 101.292969 C 328.550781 101.292969 328.085938 101.339844 327.621094 101.429688 C 327.160156 101.523438 326.710938 101.660156 326.273438 101.839844 C 325.839844 102.019531 325.425781 102.242188 325.03125 102.503906 C 324.640625 102.765625 324.277344 103.0625 323.941406 103.398438 C 323.609375 103.730469 323.3125 104.09375 323.050781 104.484375 C 322.789062 104.878906 322.566406 105.292969 322.386719 105.726562 C 322.207031 106.164062 322.070312 106.613281 321.976562 107.074219 C 321.886719 107.539062 321.839844 108.003906 321.839844 108.476562 C 321.839844 108.949219 321.886719 109.414062 321.976562 109.878906 C 322.070312 110.339844 322.207031 110.789062 322.386719 111.226562 C 322.566406 111.660156 322.789062 112.074219 323.050781 112.46875 C 323.3125 112.859375 323.609375 113.222656 323.941406 113.558594 C 324.277344 113.890625 324.640625 114.1875 325.03125 114.449219 C 325.425781 114.710938 325.839844 114.933594 326.273438 115.113281 C 326.710938 115.292969 327.160156 115.429688 327.621094 115.523438 C 328.085938 115.613281 328.550781 115.660156 329.023438 115.660156 C 329.496094 115.660156 329.960938 115.613281 330.425781 115.523438 C 330.886719 115.429688 331.335938 115.292969 331.773438 115.113281 C 332.207031 114.933594 332.621094 114.710938 333.015625 114.449219 C 333.40625 114.1875 333.769531 113.890625 334.101562 113.558594 C 334.4375 113.222656 334.734375 112.859375 334.996094 112.46875 C 335.257812 112.074219 335.480469 111.660156 335.660156 111.226562 C 335.839844 110.789062 335.976562 110.339844 336.070312 109.878906 C 336.160156 109.414062 336.207031 108.949219 336.207031 108.476562 C 336.207031 108.003906 336.160156 107.539062 336.070312 107.074219 C 335.976562 106.613281 335.839844 106.164062 335.660156 105.726562 C 335.480469 105.292969 335.257812 104.878906 334.996094 104.484375 C 334.734375 104.09375 334.4375 103.730469 334.101562 103.398438 C 333.769531 103.0625 333.40625 102.765625 333.015625 102.503906 C 332.621094 102.242188 332.207031 102.019531 331.773438 101.839844 C 331.335938 101.660156 330.886719 101.523438 330.425781 101.429688 C 329.960938 101.339844 329.496094 101.292969 329.023438 101.292969 Z M 329.023438 101.292969"/><path fill="#60BE92" d="M 142.757812 315.296875 L 123.792969 286.507812 L 89.167969 293.382812 L 131.488281 189.894531 L 185.082031 211.808594 Z M 142.757812 315.296875"/><path fill="#472B29" d="M 143.453125 322.449219 L 122.230469 290.234375 L 83.703125 297.882812 L 129.65625 185.523438 L 189.449219 209.976562 Z M 125.355469 282.78125 L 142.0625 308.148438 L 180.707031 213.648438 L 133.324219 194.273438 L 94.625 288.878906 Z M 125.355469 282.78125"/><path fill="#60BE92" d="M 232.71875 315.296875 L 251.6875 286.507812 L 286.3125 293.382812 L 243.988281 189.894531 L 190.398438 211.808594 Z M 232.71875 315.296875"/><path fill="#472B29" d="M 232.027344 322.449219 L 186.03125 209.980469 L 245.824219 185.527344 L 291.777344 297.886719 L 253.246094 290.238281 Z M 194.769531 213.644531 L 233.414062 308.140625 L 250.125 282.777344 L 280.847656 288.871094 L 242.148438 194.261719 Z M 194.769531 213.644531"/><path fill="#FCBA7F" d="M 205.632812 243.296875 C 204.039062 243.296875 202.496094 242.945312 201.054688 242.246094 L 195.238281 239.433594 C 192.917969 238.308594 190.320312 237.714844 187.738281 237.714844 C 185.15625 237.714844 182.5625 238.308594 180.234375 239.433594 L 174.425781 242.246094 C 172.984375 242.945312 171.441406 243.296875 169.847656 243.296875 C 166.738281 243.300781 163.808594 241.941406 161.804688 239.570312 L 157.632812 234.632812 C 154.359375 230.746094 149.5625 228.523438 144.476562 228.523438 C 144.476562 228.523438 137.460938 228.742188 137.457031 228.742188 C 132.472656 228.742188 128.328125 225.621094 127.03125 221.152344 L 125.230469 214.949219 C 123.753906 209.867188 120.097656 205.804688 115.191406 203.796875 L 109.203125 201.359375 C 104.753906 199.546875 102.101562 194.949219 102.753906 190.1875 L 103.636719 183.789062 C 104.359375 178.539062 102.667969 173.339844 99 169.519531 L 94.527344 164.859375 C 91.199219 161.390625 90.640625 156.109375 93.175781 152.027344 L 96.582031 146.539062 C 99.371094 142.039062 99.949219 136.601562 98.152344 131.617188 L 95.957031 125.535156 C 94.328125 121.015625 95.96875 115.96875 99.941406 113.265625 L 105.289062 109.636719 C 109.667969 106.660156 112.402344 101.929688 112.789062 96.644531 L 113.261719 90.195312 C 113.609375 85.402344 117.160156 81.460938 121.890625 80.613281 L 128.25 79.472656 C 133.460938 78.539062 137.886719 75.320312 140.394531 70.648438 L 143.445312 64.957031 C 145.277344 61.527344 148.832031 59.402344 152.71875 59.402344 C 153.5625 59.402344 154.410156 59.5 155.230469 59.703125 L 161.503906 61.246094 C 162.847656 61.574219 164.234375 61.742188 165.617188 61.742188 C 169.421875 61.742188 173.171875 60.453125 176.179688 58.121094 L 181.285156 54.160156 C 183.152344 52.726562 185.382812 51.964844 187.738281 51.964844 C 190.097656 51.964844 192.328125 52.726562 194.191406 54.171875 L 199.296875 58.132812 C 202.300781 60.464844 206.054688 61.753906 209.855469 61.753906 C 211.246094 61.753906 212.628906 61.585938 213.976562 61.253906 L 220.25 59.710938 C 221.074219 59.511719 221.921875 59.410156 222.757812 59.410156 C 226.644531 59.410156 230.195312 61.539062 232.03125 64.960938 L 235.085938 70.65625 C 237.585938 75.324219 242.011719 78.539062 247.222656 79.476562 L 253.582031 80.617188 C 258.3125 81.464844 261.863281 85.40625 262.210938 90.199219 L 262.6875 96.648438 C 263.074219 101.933594 265.804688 106.667969 270.1875 109.640625 L 275.527344 113.265625 C 279.5 115.960938 281.140625 121.011719 279.511719 125.535156 L 277.316406 131.617188 C 275.523438 136.601562 276.097656 142.039062 278.890625 146.539062 L 282.292969 152.027344 C 284.828125 156.109375 284.273438 161.390625 280.945312 164.859375 L 276.46875 169.519531 C 272.800781 173.34375 271.109375 178.542969 271.835938 183.789062 L 272.714844 190.191406 C 273.367188 194.949219 270.714844 199.546875 266.257812 201.359375 L 260.277344 203.796875 C 255.375 205.804688 251.714844 209.871094 250.238281 214.949219 L 248.4375 221.152344 C 247.140625 225.621094 242.988281 228.746094 238.339844 228.746094 L 230.992188 228.523438 C 225.90625 228.523438 221.109375 230.75 217.835938 234.636719 L 213.667969 239.5625 C 211.671875 241.941406 208.742188 243.296875 205.632812 243.296875 Z M 205.632812 243.296875"/><path fill="#472B29" d="M 187.738281 55.316406 C 189.34375 55.316406 190.867188 55.839844 192.136719 56.820312 L 197.238281 60.78125 C 200.828125 63.566406 205.304688 65.101562 209.851562 65.101562 C 211.503906 65.101562 213.160156 64.898438 214.769531 64.5 L 221.042969 62.960938 C 221.609375 62.820312 222.183594 62.753906 222.757812 62.753906 C 225.402344 62.753906 227.824219 64.203125 229.074219 66.539062 L 232.125 72.230469 C 235.113281 77.8125 240.398438 81.648438 246.628906 82.769531 L 252.984375 83.90625 C 256.207031 84.488281 258.625 87.175781 258.863281 90.441406 L 259.335938 96.882812 C 259.792969 103.195312 263.058594 108.855469 268.296875 112.402344 L 273.640625 116.035156 C 276.351562 117.875 277.464844 121.3125 276.355469 124.398438 L 274.167969 130.472656 C 272.019531 136.421875 272.707031 142.921875 276.039062 148.300781 L 279.445312 153.789062 C 281.171875 156.574219 280.796875 160.167969 278.523438 162.535156 L 274.050781 167.195312 C 269.667969 171.757812 267.652344 177.96875 268.511719 184.242188 L 269.390625 190.640625 C 269.835938 193.890625 268.03125 197.015625 264.996094 198.25 L 259.011719 200.691406 C 253.15625 203.078125 248.785156 207.929688 247.015625 214.007812 L 245.214844 220.210938 C 244.335938 223.25 241.507812 225.378906 238.113281 225.378906 C 238.109375 225.378906 238.109375 225.378906 238.101562 225.378906 L 231.644531 225.171875 L 230.996094 225.164062 C 224.921875 225.164062 219.191406 227.824219 215.273438 232.460938 L 211.105469 237.394531 C 209.742188 239.011719 207.746094 239.9375 205.621094 239.9375 C 204.535156 239.9375 203.492188 239.699219 202.507812 239.222656 L 196.695312 236.414062 C 193.917969 235.066406 190.820312 234.359375 187.730469 234.359375 C 184.644531 234.359375 181.542969 235.066406 178.769531 236.414062 L 172.953125 239.222656 C 171.972656 239.699219 170.925781 239.9375 169.84375 239.9375 C 167.726562 239.9375 165.722656 239.011719 164.359375 237.394531 L 160.191406 232.460938 C 156.273438 227.820312 150.542969 225.164062 144.46875 225.164062 L 143.816406 225.171875 L 137.132812 225.382812 C 133.964844 225.382812 131.136719 223.257812 130.253906 220.210938 L 128.453125 214.007812 C 126.691406 207.929688 122.316406 203.074219 116.460938 200.691406 L 110.480469 198.25 C 107.445312 197.015625 105.636719 193.882812 106.082031 190.640625 L 106.957031 184.242188 C 107.820312 177.972656 105.800781 171.761719 101.417969 167.195312 L 96.945312 162.535156 C 94.675781 160.167969 94.300781 156.574219 96.023438 153.792969 L 99.429688 148.304688 C 102.761719 142.925781 103.449219 136.433594 101.300781 130.480469 L 99.113281 124.402344 C 98.003906 121.316406 99.117188 117.882812 101.828125 116.039062 L 107.175781 112.410156 C 112.410156 108.855469 115.675781 103.199219 116.140625 96.886719 L 116.609375 90.445312 C 116.847656 87.179688 119.265625 84.492188 122.492188 83.914062 L 128.851562 82.773438 C 135.078125 81.652344 140.363281 77.8125 143.347656 72.238281 L 146.398438 66.542969 C 147.648438 64.210938 150.070312 62.757812 152.714844 62.757812 C 153.289062 62.757812 153.863281 62.832031 154.429688 62.964844 L 160.703125 64.507812 C 162.3125 64.902344 163.964844 65.105469 165.617188 65.105469 C 170.164062 65.105469 174.644531 63.574219 178.234375 60.785156 L 183.332031 56.824219 C 184.613281 55.839844 186.136719 55.316406 187.738281 55.316406 M 187.738281 48.609375 C 184.738281 48.609375 181.734375 49.582031 179.234375 51.523438 L 174.128906 55.484375 C 171.671875 57.390625 168.671875 58.394531 165.621094 58.394531 C 164.515625 58.394531 163.40625 58.261719 162.308594 57.992188 L 156.035156 56.449219 C 154.929688 56.179688 153.816406 56.050781 152.71875 56.050781 C 147.695312 56.050781 142.949219 58.789062 140.492188 63.371094 L 137.441406 69.066406 C 135.441406 72.800781 131.839844 75.421875 127.667969 76.167969 L 121.308594 77.308594 C 115.070312 78.429688 110.386719 83.628906 109.921875 89.953125 L 109.453125 96.394531 C 109.144531 100.621094 106.921875 104.476562 103.410156 106.859375 L 98.066406 110.488281 C 92.824219 114.050781 90.660156 120.707031 92.804688 126.667969 L 94.996094 132.746094 C 96.433594 136.734375 95.96875 141.160156 93.730469 144.761719 L 90.324219 150.25 C 86.984375 155.636719 87.714844 162.597656 92.101562 167.167969 L 96.574219 171.828125 C 99.511719 174.890625 100.886719 179.125 100.3125 183.324219 L 99.429688 189.722656 C 98.566406 196 102.070312 202.0625 107.9375 204.453125 L 113.917969 206.890625 C 117.84375 208.492188 120.824219 211.800781 122 215.871094 L 123.800781 222.074219 C 125.527344 228.015625 130.96875 232.078125 137.121094 232.078125 C 137.269531 232.078125 137.417969 232.078125 137.566406 232.074219 L 144.023438 231.867188 C 144.171875 231.863281 144.316406 231.863281 144.457031 231.863281 C 148.539062 231.863281 152.417969 233.660156 155.0625 236.785156 L 159.230469 241.71875 C 161.933594 244.917969 165.84375 246.644531 169.832031 246.644531 C 171.871094 246.644531 173.9375 246.191406 175.867188 245.257812 L 181.679688 242.445312 C 183.585938 241.523438 185.65625 241.058594 187.726562 241.058594 C 189.792969 241.058594 191.859375 241.523438 193.769531 242.445312 L 199.582031 245.257812 C 201.511719 246.191406 203.578125 246.644531 205.617188 246.644531 C 209.605469 246.644531 213.519531 244.921875 216.222656 241.71875 L 220.386719 236.785156 C 223.027344 233.660156 226.910156 231.863281 230.992188 231.863281 C 231.136719 231.863281 231.285156 231.863281 231.425781 231.867188 L 237.882812 232.074219 C 238.03125 232.078125 238.179688 232.078125 238.328125 232.078125 C 244.476562 232.078125 249.921875 228.011719 251.648438 222.074219 L 253.449219 215.871094 C 254.632812 211.800781 257.609375 208.492188 261.53125 206.890625 L 267.515625 204.453125 C 273.382812 202.058594 276.882812 195.996094 276.019531 189.722656 L 275.140625 183.324219 C 274.5625 179.125 275.9375 174.890625 278.875 171.828125 L 283.347656 167.167969 C 287.734375 162.597656 288.46875 155.636719 285.125 150.25 L 281.71875 144.761719 C 279.484375 141.160156 279.019531 136.730469 280.453125 132.746094 L 282.644531 126.667969 C 284.792969 120.703125 282.628906 114.046875 277.386719 110.488281 L 272.039062 106.859375 C 268.535156 104.476562 266.308594 100.621094 265.996094 96.394531 L 265.527344 89.953125 C 265.066406 83.636719 260.378906 78.429688 254.144531 77.308594 L 247.78125 76.167969 C 243.609375 75.417969 240.007812 72.800781 238.007812 69.066406 L 234.957031 63.371094 C 232.5 58.789062 227.753906 56.050781 222.730469 56.050781 C 221.632812 56.050781 220.515625 56.179688 219.414062 56.449219 L 213.140625 57.992188 C 212.046875 58.261719 210.933594 58.394531 209.828125 58.394531 C 206.777344 58.394531 203.777344 57.390625 201.320312 55.484375 L 196.214844 51.523438 C 193.746094 49.582031 190.742188 48.609375 187.738281 48.609375 Z M 187.738281 48.609375"/><path fill="#472B29" d="M 258.386719 129.894531 C 257.359375 129.894531 256.414062 129.230469 256.097656 128.199219 C 255.78125 127.160156 255.4375 126.136719 255.070312 125.121094 C 253.660156 121.171875 251.878906 117.328125 249.769531 113.6875 C 249.105469 112.546875 249.496094 111.082031 250.640625 110.417969 C 251.785156 109.738281 253.246094 110.140625 253.914062 111.292969 C 256.164062 115.175781 258.070312 119.285156 259.578125 123.5 C 259.964844 124.582031 260.332031 125.679688 260.675781 126.796875 C 261.0625 128.058594 260.355469 129.402344 259.085938 129.789062 C 258.855469 129.859375 258.617188 129.894531 258.386719 129.894531 Z M 115.375 135.050781 C 115.199219 135.050781 115.027344 135.035156 114.855469 134.996094 C 113.5625 134.707031 112.75 133.429688 113.035156 132.136719 C 120.699219 97.503906 152.117188 72.367188 187.746094 72.367188 C 209.636719 72.367188 230.523438 81.742188 245.042969 98.097656 C 246.140625 99.34375 247.199219 100.609375 248.214844 101.910156 C 249.023438 102.953125 248.839844 104.457031 247.796875 105.273438 C 246.746094 106.078125 245.246094 105.894531 244.433594 104.855469 C 243.480469 103.628906 242.492188 102.4375 241.457031 101.273438 C 227.84375 85.949219 208.265625 77.15625 187.738281 77.15625 C 154.34375 77.15625 124.890625 100.714844 117.710938 133.175781 C 117.460938 134.292969 116.476562 135.050781 115.375 135.050781 Z M 187.738281 224.910156 C 150.445312 224.910156 118.75 198.363281 112.371094 161.785156 C 112.144531 160.484375 113.015625 159.242188 114.320312 159.019531 C 115.652344 158.742188 116.863281 159.664062 117.09375 160.960938 C 123.066406 195.238281 152.777344 220.121094 187.738281 220.121094 C 227.28125 220.121094 259.449219 188.054688 259.449219 148.640625 C 259.449219 145.046875 259.179688 141.4375 258.648438 137.910156 C 258.453125 136.609375 259.351562 135.386719 260.660156 135.191406 C 261.984375 135.007812 263.191406 135.890625 263.386719 137.203125 C 263.949219 140.960938 264.238281 144.8125 264.238281 148.644531 C 264.238281 190.695312 229.921875 224.910156 187.738281 224.910156 Z M 264.910156 277.09375 C 264.433594 277.09375 263.988281 276.808594 263.796875 276.347656 L 259.082031 264.660156 C 258.832031 264.046875 259.128906 263.351562 259.742188 263.101562 C 260.34375 262.84375 261.046875 263.148438 261.300781 263.765625 L 266.019531 275.449219 C 266.269531 276.0625 265.972656 276.757812 265.359375 277.007812 C 265.210938 277.0625 265.0625 277.09375 264.910156 277.09375 Z M 264.910156 277.09375"/><path fill="#472B29" d="M 256.753906 256.878906 C 256.277344 256.878906 255.832031 256.59375 255.640625 256.128906 L 244.78125 229.222656 C 244.53125 228.609375 244.828125 227.917969 245.441406 227.667969 C 246.042969 227.402344 246.75 227.710938 247 228.328125 L 257.863281 255.234375 C 258.113281 255.847656 257.816406 256.542969 257.203125 256.792969 C 257.054688 256.847656 256.902344 256.878906 256.753906 256.878906 Z M 256.753906 256.878906"/><path fill="#472B29" d="M 139.109375 289.890625 C 138.949219 289.890625 138.792969 289.855469 138.640625 289.792969 C 138.03125 289.53125 137.746094 288.832031 138.007812 288.222656 L 142.9375 276.617188 C 143.195312 276.003906 143.902344 275.742188 144.507812 275.980469 C 145.113281 276.246094 145.402344 276.945312 145.140625 277.550781 L 140.210938 289.15625 C 140.019531 289.617188 139.574219 289.890625 139.109375 289.890625 Z M 139.109375 289.890625"/><path fill="#472B29" d="M 147.632812 269.824219 C 147.476562 269.824219 147.316406 269.789062 147.164062 269.726562 C 146.554688 269.464844 146.269531 268.765625 146.53125 268.15625 L 148.964844 262.433594 C 149.222656 261.820312 149.933594 261.554688 150.535156 261.796875 C 151.144531 262.058594 151.433594 262.757812 151.167969 263.367188 L 148.734375 269.089844 C 148.539062 269.554688 148.097656 269.824219 147.632812 269.824219 Z M 147.632812 269.824219"/><path fill="#472B29" d="M 152.789062 257.695312 C 152.628906 257.695312 152.472656 257.664062 152.316406 257.601562 C 151.710938 257.335938 151.421875 256.636719 151.6875 256.03125 L 157.878906 241.445312 C 158.136719 240.832031 158.847656 240.574219 159.449219 240.808594 C 160.058594 241.074219 160.34375 241.773438 160.082031 242.378906 L 153.890625 256.964844 C 153.691406 257.429688 153.25 257.695312 152.789062 257.695312 Z M 152.789062 257.695312"/><path fill="#FEFDEF" d="M 178.960938 181.675781 C 177.375 181.675781 175.855469 181.097656 174.683594 180.046875 L 143.625 149.539062 C 142.402344 148.449219 141.667969 146.902344 141.585938 145.226562 C 141.503906 143.550781 142.09375 141.941406 143.242188 140.699219 C 144.449219 139.402344 146.164062 138.652344 147.949219 138.652344 C 149.53125 138.652344 151.050781 139.230469 152.222656 140.277344 L 178.898438 166.796875 L 223.683594 122.605469 C 224.894531 121.480469 226.445312 120.871094 228.074219 120.871094 C 229.84375 120.871094 231.480469 121.570312 232.695312 122.835938 C 233.871094 124.050781 234.488281 125.648438 234.441406 127.328125 C 234.390625 129.007812 233.683594 130.570312 232.4375 131.722656 L 183.347656 179.949219 C 182.140625 181.066406 180.59375 181.675781 178.960938 181.675781 Z M 178.960938 181.675781"/><path fill="#472B29" d="M 228.066406 122.070312 C 229.433594 122.070312 230.804688 122.601562 231.824219 123.664062 C 233.789062 125.703125 233.691406 128.917969 231.613281 130.84375 L 182.503906 179.09375 C 181.511719 180.019531 180.234375 180.484375 178.960938 180.484375 C 177.714844 180.484375 176.46875 180.042969 175.484375 179.160156 L 144.46875 148.6875 C 142.355469 146.800781 142.203125 143.585938 144.125 141.511719 C 145.144531 140.410156 146.546875 139.851562 147.953125 139.851562 C 149.195312 139.851562 150.4375 140.289062 151.425781 141.167969 L 178.898438 168.476562 L 224.527344 123.457031 C 225.515625 122.535156 226.792969 122.070312 228.066406 122.070312 M 228.066406 119.675781 C 226.136719 119.675781 224.296875 120.394531 222.886719 121.699219 L 178.898438 165.105469 L 153.109375 139.46875 C 151.625 138.136719 149.824219 137.453125 147.949219 137.453125 C 145.832031 137.453125 143.796875 138.339844 142.367188 139.875 C 140.996094 141.355469 140.296875 143.269531 140.386719 145.273438 C 140.484375 147.273438 141.363281 149.117188 142.867188 150.464844 L 173.800781 180.855469 C 175.277344 182.179688 177.078125 182.867188 178.960938 182.867188 C 180.890625 182.867188 182.730469 182.148438 184.136719 180.839844 L 233.296875 132.542969 C 234.726562 131.222656 235.574219 129.359375 235.632812 127.355469 C 235.691406 125.355469 234.953125 123.453125 233.554688 121.996094 C 232.132812 120.527344 230.128906 119.675781 228.066406 119.675781 Z M 228.066406 119.675781"/></svg>