<svg xmlns="http://www.w3.org/2000/svg" width="375" viewBox="0 0 375 375" height="375" version="1.0"><path fill="#42A5F5" d="M 187.507812 375.015625 C 290.785156 375.015625 375.015625 290.785156 375.015625 187.507812 C 375.015625 84.234375 290.785156 0 187.507812 0 C 84.230469 0 0 84.234375 0 187.507812 C 0 290.785156 84.230469 375.015625 187.507812 375.015625" fill-rule="evenodd"/><path fill="#FFFFFE" d="M 266.773438 89.238281 L 266.773438 241.027344 L 217.671875 241.027344 L 217.671875 290.050781 L 108.238281 290.050781 L 108.238281 84.964844 L 266.773438 84.964844 Z M 178.769531 132.96875 C 178.203125 135.414062 177.273438 137.210938 175.980469 138.351562 C 174.691406 139.496094 173.148438 140.066406 171.347656 140.066406 C 168.917969 140.066406 166.9375 139.167969 165.417969 137.371094 C 163.894531 135.578125 163.136719 132.5625 163.136719 128.335938 C 163.136719 124.34375 163.90625 121.460938 165.453125 119.683594 C 166.992188 117.902344 169.011719 117.015625 171.488281 117.015625 C 173.277344 117.015625 174.808594 117.511719 176.0625 118.515625 C 177.320312 119.519531 178.148438 120.890625 178.539062 122.628906 L 185.230469 121.035156 C 184.464844 118.351562 183.328125 116.296875 181.800781 114.871094 C 179.246094 112.449219 175.917969 111.242188 171.828125 111.242188 C 167.140625 111.242188 163.363281 112.785156 160.488281 115.859375 C 157.613281 118.945312 156.171875 123.269531 156.171875 128.839844 C 156.171875 134.097656 157.605469 138.25 160.464844 141.285156 C 163.324219 144.316406 166.976562 145.835938 171.417969 145.835938 C 175.007812 145.835938 177.976562 144.949219 180.304688 143.179688 C 182.640625 141.40625 184.308594 138.695312 185.316406 135.039062 Z M 199.648438 145.269531 L 206.863281 145.269531 L 218.839844 111.8125 L 211.675781 111.8125 L 203.480469 136.574219 L 195.019531 111.8125 L 187.691406 111.8125 Z M 140.402344 224.035156 L 140.402344 232.582031 L 234.613281 232.582031 L 234.613281 224.035156 Z M 140.402344 196.90625 L 140.402344 205.453125 L 234.613281 205.453125 L 234.613281 196.90625 Z M 140.402344 169.777344 L 140.402344 178.324219 L 234.613281 178.324219 L 234.613281 169.777344 Z M 234.761719 258.121094 L 234.761719 267.945312 L 244.570312 258.121094 Z M 234.761719 258.121094" fill-rule="evenodd"/><path fill="#FFFFFE" d="M 265.523438 255.230469 L 232.042969 288.785156 L 230.777344 290.050781 L 221.945312 290.050781 L 221.945312 245.300781 L 266.773438 245.300781 L 266.773438 252.226562 Z M 230.492188 278.277344 L 254.871094 253.84375 L 230.492188 253.84375 Z M 230.492188 278.277344"/></svg>