<svg xmlns="http://www.w3.org/2000/svg" width="375" viewBox="0 0 375 375" height="375" version="1.0"><defs><clipPath id="a"><path d="M 2 64 L 373 64 L 373 325.585938 L 2 325.585938 Z M 2 64"/></clipPath></defs><g clip-path="url(#a)"><path fill="#F03E45" d="M 351.023438 325.402344 L 24.050781 325.402344 C 12.390625 325.402344 2.9375 315.945312 2.9375 304.277344 L 2.9375 85.816406 C 2.9375 74.152344 12.390625 64.691406 24.050781 64.691406 C 35.710938 64.691406 45.164062 74.152344 45.164062 85.816406 L 45.164062 283.15625 L 329.910156 283.15625 L 329.910156 85.816406 C 329.910156 74.152344 339.363281 64.691406 351.023438 64.691406 C 362.6875 64.691406 372.144531 74.152344 372.144531 85.816406 L 372.144531 304.277344 C 372.144531 315.945312 362.6875 325.402344 351.023438 325.402344"/></g><path fill="#FBC508" d="M 351.023438 106.9375 L 24.050781 106.9375 C 12.390625 106.9375 2.9375 97.480469 2.9375 85.816406 C 2.9375 74.152344 12.390625 64.691406 24.050781 64.691406 L 351.023438 64.691406 C 362.6875 64.691406 372.144531 74.152344 372.144531 85.816406 C 372.144531 97.480469 362.6875 106.9375 351.023438 106.9375"/><path fill="#00ADEF" d="M 187.539062 216.167969 C 183.453125 216.167969 179.363281 214.984375 175.808594 212.613281 L 12.324219 103.382812 C 2.625 96.902344 0.015625 83.785156 6.492188 74.085938 C 12.96875 64.382812 26.078125 61.769531 35.78125 68.25 L 187.539062 169.648438 L 339.300781 68.25 C 349 61.773438 362.109375 64.382812 368.589844 74.085938 C 375.0625 83.785156 372.453125 96.902344 362.753906 103.382812 L 199.269531 212.613281 C 195.71875 214.984375 191.628906 216.167969 187.539062 216.167969"/></svg>