<svg xmlns="http://www.w3.org/2000/svg" width="375" viewBox="0 0 375 375" height="375" version="1.0"><path fill="#F1BC19" d="M 317.050781 5.507812 C 316.734375 5.507812 316.425781 5.539062 316.117188 5.601562 C 315.808594 5.660156 315.507812 5.75 315.21875 5.871094 C 314.925781 5.992188 314.652344 6.140625 314.390625 6.316406 C 314.128906 6.488281 313.886719 6.6875 313.664062 6.910156 C 313.441406 7.132812 313.242188 7.375 313.066406 7.636719 C 312.894531 7.898438 312.746094 8.171875 312.625 8.464844 C 312.503906 8.753906 312.414062 9.054688 312.351562 9.363281 C 312.292969 9.671875 312.261719 9.984375 312.261719 10.296875 C 312.261719 10.613281 312.292969 10.921875 312.351562 11.230469 C 312.414062 11.539062 312.503906 11.839844 312.625 12.128906 C 312.746094 12.421875 312.894531 12.695312 313.066406 12.957031 C 313.242188 13.21875 313.441406 13.460938 313.664062 13.683594 C 313.886719 13.90625 314.128906 14.105469 314.390625 14.277344 C 314.652344 14.453125 314.925781 14.601562 315.21875 14.722656 C 315.507812 14.84375 315.808594 14.933594 316.117188 14.996094 C 316.425781 15.054688 316.734375 15.085938 317.050781 15.085938 C 317.363281 15.085938 317.675781 15.054688 317.984375 14.996094 C 318.292969 14.933594 318.59375 14.84375 318.882812 14.722656 C 319.171875 14.601562 319.449219 14.453125 319.710938 14.277344 C 319.972656 14.105469 320.214844 13.90625 320.4375 13.683594 C 320.660156 13.460938 320.855469 13.21875 321.03125 12.957031 C 321.207031 12.695312 321.355469 12.421875 321.472656 12.128906 C 321.59375 11.839844 321.6875 11.539062 321.746094 11.230469 C 321.808594 10.921875 321.839844 10.613281 321.839844 10.296875 C 321.839844 9.984375 321.808594 9.671875 321.746094 9.363281 C 321.6875 9.054688 321.59375 8.753906 321.472656 8.464844 C 321.355469 8.171875 321.207031 7.898438 321.03125 7.636719 C 320.855469 7.375 320.660156 7.132812 320.4375 6.910156 C 320.214844 6.6875 319.972656 6.488281 319.710938 6.316406 C 319.449219 6.140625 319.171875 5.992188 318.882812 5.871094 C 318.59375 5.75 318.292969 5.660156 317.984375 5.601562 C 317.675781 5.539062 317.363281 5.507812 317.050781 5.507812 Z M 317.050781 5.507812"/><path fill="#E4E4F9" d="M 187.738281 10.296875 C 184.839844 10.296875 181.941406 10.367188 179.042969 10.511719 C 176.148438 10.652344 173.257812 10.867188 170.371094 11.148438 C 167.484375 11.433594 164.605469 11.789062 161.738281 12.214844 C 158.871094 12.640625 156.011719 13.136719 153.167969 13.703125 C 150.324219 14.269531 147.496094 14.902344 144.683594 15.609375 C 141.871094 16.3125 139.074219 17.085938 136.300781 17.925781 C 133.523438 18.769531 130.773438 19.679688 128.042969 20.65625 C 125.3125 21.632812 122.605469 22.675781 119.925781 23.785156 C 117.246094 24.894531 114.597656 26.070312 111.976562 27.308594 C 109.355469 28.550781 106.765625 29.855469 104.207031 31.222656 C 101.648438 32.589844 99.125 34.015625 96.640625 35.507812 C 94.152344 37 91.703125 38.550781 89.289062 40.160156 C 86.878906 41.773438 84.507812 43.441406 82.179688 45.167969 C 79.851562 46.898438 77.566406 48.679688 75.324219 50.519531 C 73.082031 52.359375 70.886719 54.253906 68.738281 56.203125 C 66.589844 58.148438 64.488281 60.148438 62.4375 62.199219 C 60.386719 64.25 58.386719 66.347656 56.441406 68.496094 C 54.492188 70.644531 52.597656 72.839844 50.757812 75.082031 C 48.917969 77.324219 47.136719 79.609375 45.410156 81.941406 C 43.679688 84.269531 42.011719 86.640625 40.402344 89.050781 C 38.789062 91.460938 37.238281 93.910156 35.746094 96.398438 C 34.257812 98.886719 32.828125 101.410156 31.460938 103.96875 C 30.09375 106.523438 28.789062 109.113281 27.550781 111.734375 C 26.308594 114.359375 25.136719 117.007812 24.023438 119.6875 C 22.914062 122.367188 21.871094 125.070312 20.894531 127.800781 C 19.917969 130.53125 19.007812 133.285156 18.167969 136.0625 C 17.324219 138.835938 16.550781 141.628906 15.847656 144.441406 C 15.140625 147.257812 14.507812 150.085938 13.941406 152.929688 C 13.375 155.773438 12.878906 158.628906 12.453125 161.5 C 12.027344 164.367188 11.675781 167.246094 11.390625 170.132812 C 11.105469 173.015625 10.890625 175.910156 10.75 178.804688 C 10.609375 181.703125 10.535156 184.601562 10.535156 187.5 C 10.535156 190.398438 10.609375 193.296875 10.75 196.195312 C 10.890625 199.089844 11.105469 201.984375 11.390625 204.867188 C 11.675781 207.753906 12.027344 210.632812 12.453125 213.5 C 12.878906 216.371094 13.375 219.226562 13.941406 222.070312 C 14.507812 224.914062 15.140625 227.742188 15.847656 230.558594 C 16.550781 233.371094 17.324219 236.164062 18.167969 238.9375 C 19.007812 241.714844 19.917969 244.46875 20.894531 247.199219 C 21.871094 249.929688 22.914062 252.632812 24.023438 255.3125 C 25.136719 257.992188 26.308594 260.640625 27.550781 263.265625 C 28.789062 265.886719 30.09375 268.476562 31.460938 271.03125 C 32.828125 273.589844 34.257812 276.113281 35.746094 278.601562 C 37.238281 281.089844 38.789062 283.539062 40.402344 285.949219 C 42.011719 288.359375 43.679688 290.730469 45.410156 293.058594 C 47.136719 295.390625 48.917969 297.675781 50.757812 299.917969 C 52.597656 302.15625 54.492188 304.351562 56.441406 306.503906 C 58.386719 308.652344 60.386719 310.75 62.4375 312.800781 C 64.488281 314.851562 66.589844 316.851562 68.738281 318.796875 C 70.886719 320.746094 73.082031 322.640625 75.324219 324.480469 C 77.566406 326.320312 79.851562 328.101562 82.179688 329.832031 C 84.507812 331.558594 86.878906 333.226562 89.289062 334.839844 C 91.703125 336.449219 94.152344 338 96.640625 339.492188 C 99.125 340.984375 101.648438 342.410156 104.207031 343.777344 C 106.765625 345.144531 109.355469 346.449219 111.976562 347.691406 C 114.597656 348.929688 117.246094 350.105469 119.925781 351.214844 C 122.605469 352.324219 125.3125 353.367188 128.042969 354.34375 C 130.773438 355.320312 133.523438 356.230469 136.300781 357.074219 C 139.074219 357.914062 141.871094 358.6875 144.683594 359.390625 C 147.496094 360.097656 150.324219 360.730469 153.167969 361.296875 C 156.011719 361.863281 158.871094 362.359375 161.738281 362.785156 C 164.605469 363.210938 167.484375 363.566406 170.371094 363.851562 C 173.257812 364.132812 176.148438 364.347656 179.042969 364.488281 C 181.941406 364.632812 184.839844 364.703125 187.738281 364.703125 C 190.640625 364.703125 193.539062 364.632812 196.433594 364.488281 C 199.332031 364.347656 202.222656 364.132812 205.109375 363.851562 C 207.996094 363.566406 210.871094 363.210938 213.742188 362.785156 C 216.609375 362.359375 219.464844 361.863281 222.308594 361.296875 C 225.15625 360.730469 227.984375 360.097656 230.796875 359.390625 C 233.609375 358.6875 236.402344 357.914062 239.179688 357.074219 C 241.953125 356.230469 244.707031 355.320312 247.4375 354.34375 C 250.167969 353.367188 252.871094 352.324219 255.550781 351.214844 C 258.230469 350.105469 260.882812 348.929688 263.503906 347.691406 C 266.125 346.449219 268.714844 345.144531 271.273438 343.777344 C 273.828125 342.410156 276.351562 340.984375 278.839844 339.492188 C 281.328125 338 283.777344 336.449219 286.1875 334.839844 C 288.597656 333.226562 290.96875 331.558594 293.300781 329.832031 C 295.628906 328.101562 297.914062 326.320312 300.15625 324.480469 C 302.398438 322.640625 304.59375 320.746094 306.742188 318.796875 C 308.890625 316.851562 310.988281 314.851562 313.039062 312.800781 C 315.089844 310.75 317.089844 308.652344 319.039062 306.503906 C 320.984375 304.351562 322.878906 302.15625 324.71875 299.917969 C 326.558594 297.675781 328.34375 295.390625 330.070312 293.058594 C 331.796875 290.730469 333.46875 288.359375 335.078125 285.949219 C 336.691406 283.539062 338.242188 281.089844 339.730469 278.601562 C 341.222656 276.113281 342.652344 273.589844 344.019531 271.03125 C 345.386719 268.476562 346.6875 265.886719 347.929688 263.265625 C 349.167969 260.640625 350.34375 257.992188 351.453125 255.3125 C 352.5625 252.632812 353.605469 249.929688 354.582031 247.199219 C 355.5625 244.46875 356.46875 241.714844 357.3125 238.9375 C 358.152344 236.164062 358.925781 233.371094 359.632812 230.558594 C 360.335938 227.742188 360.972656 224.914062 361.539062 222.070312 C 362.101562 219.226562 362.597656 216.371094 363.023438 213.5 C 363.449219 210.632812 363.804688 207.753906 364.089844 204.867188 C 364.375 201.984375 364.585938 199.089844 364.730469 196.195312 C 364.871094 193.296875 364.941406 190.398438 364.941406 187.5 C 364.941406 184.601562 364.871094 181.703125 364.730469 178.804688 C 364.585938 175.910156 364.375 173.015625 364.089844 170.132812 C 363.804688 167.246094 363.449219 164.367188 363.023438 161.5 C 362.597656 158.628906 362.101562 155.773438 361.539062 152.929688 C 360.972656 150.085938 360.335938 147.257812 359.632812 144.441406 C 358.925781 141.628906 358.152344 138.835938 357.3125 136.0625 C 356.46875 133.285156 355.5625 130.53125 354.582031 127.800781 C 353.605469 125.070312 352.5625 122.367188 351.453125 119.6875 C 350.34375 117.007812 349.167969 114.359375 347.929688 111.734375 C 346.6875 109.113281 345.386719 106.523438 344.019531 103.96875 C 342.652344 101.410156 341.222656 98.886719 339.730469 96.398438 C 338.242188 93.910156 336.691406 91.460938 335.078125 89.050781 C 333.46875 86.640625 331.796875 84.269531 330.070312 81.941406 C 328.34375 79.609375 326.558594 77.324219 324.71875 75.082031 C 322.878906 72.839844 320.984375 70.644531 319.039062 68.496094 C 317.089844 66.347656 315.089844 64.25 313.039062 62.199219 C 310.988281 60.148438 308.890625 58.148438 306.742188 56.203125 C 304.59375 54.253906 302.398438 52.359375 300.15625 50.519531 C 297.914062 48.679688 295.628906 46.898438 293.300781 45.167969 C 290.96875 43.441406 288.597656 41.773438 286.1875 40.160156 C 283.777344 38.550781 281.328125 37 278.839844 35.507812 C 276.351562 34.015625 273.828125 32.589844 271.273438 31.222656 C 268.714844 29.855469 266.125 28.550781 263.503906 27.308594 C 260.882812 26.070312 258.230469 24.894531 255.550781 23.785156 C 252.871094 22.675781 250.167969 21.632812 247.4375 20.65625 C 244.707031 19.679688 241.953125 18.769531 239.179688 17.925781 C 236.402344 17.085938 233.609375 16.3125 230.796875 15.609375 C 227.984375 14.902344 225.15625 14.269531 222.308594 13.703125 C 219.464844 13.136719 216.609375 12.640625 213.742188 12.214844 C 210.871094 11.789062 207.996094 11.433594 205.109375 11.148438 C 202.222656 10.867188 199.332031 10.652344 196.433594 10.511719 C 193.539062 10.367188 190.640625 10.296875 187.738281 10.296875 Z M 187.738281 10.296875"/><path fill="#F1BC19" d="M 345.785156 0.71875 C 345.15625 0.71875 344.53125 0.75 343.90625 0.8125 C 343.285156 0.871094 342.664062 0.964844 342.046875 1.085938 C 341.433594 1.207031 340.824219 1.359375 340.222656 1.542969 C 339.625 1.726562 339.035156 1.9375 338.453125 2.175781 C 337.875 2.417969 337.308594 2.683594 336.753906 2.980469 C 336.203125 3.277344 335.664062 3.597656 335.140625 3.945312 C 334.621094 4.296875 334.117188 4.667969 333.632812 5.066406 C 333.148438 5.464844 332.683594 5.886719 332.238281 6.328125 C 331.796875 6.773438 331.375 7.238281 330.976562 7.722656 C 330.578125 8.207031 330.207031 8.710938 329.855469 9.230469 C 329.507812 9.753906 329.1875 10.292969 328.890625 10.84375 C 328.59375 11.398438 328.328125 11.964844 328.085938 12.542969 C 327.847656 13.125 327.636719 13.714844 327.453125 14.316406 C 327.269531 14.914062 327.117188 15.523438 326.996094 16.136719 C 326.875 16.753906 326.78125 17.375 326.71875 17.996094 C 326.660156 18.621094 326.628906 19.25 326.628906 19.875 C 326.628906 20.503906 326.660156 21.128906 326.71875 21.753906 C 326.78125 22.378906 326.875 22.996094 326.996094 23.613281 C 327.117188 24.226562 327.269531 24.835938 327.453125 25.4375 C 327.636719 26.035156 327.847656 26.625 328.085938 27.207031 C 328.328125 27.785156 328.59375 28.351562 328.890625 28.90625 C 329.1875 29.460938 329.507812 29.996094 329.855469 30.519531 C 330.207031 31.039062 330.578125 31.542969 330.976562 32.027344 C 331.375 32.511719 331.796875 32.976562 332.238281 33.421875 C 332.683594 33.867188 333.148438 34.285156 333.632812 34.683594 C 334.117188 35.082031 334.621094 35.457031 335.140625 35.804688 C 335.664062 36.152344 336.203125 36.476562 336.753906 36.769531 C 337.308594 37.066406 337.875 37.335938 338.453125 37.574219 C 339.035156 37.8125 339.625 38.027344 340.222656 38.207031 C 340.824219 38.390625 341.433594 38.542969 342.046875 38.664062 C 342.664062 38.785156 343.285156 38.878906 343.90625 38.941406 C 344.53125 39 345.15625 39.03125 345.785156 39.03125 C 346.414062 39.03125 347.039062 39 347.664062 38.941406 C 348.289062 38.878906 348.90625 38.785156 349.523438 38.664062 C 350.136719 38.542969 350.746094 38.390625 351.347656 38.207031 C 351.945312 38.027344 352.535156 37.8125 353.117188 37.574219 C 353.695312 37.335938 354.261719 37.066406 354.816406 36.769531 C 355.371094 36.476562 355.90625 36.152344 356.429688 35.804688 C 356.949219 35.457031 357.453125 35.082031 357.9375 34.683594 C 358.421875 34.285156 358.886719 33.867188 359.332031 33.421875 C 359.773438 32.976562 360.195312 32.511719 360.59375 32.027344 C 360.992188 31.542969 361.367188 31.039062 361.714844 30.519531 C 362.0625 29.996094 362.382812 29.460938 362.679688 28.90625 C 362.976562 28.351562 363.242188 27.785156 363.484375 27.207031 C 363.722656 26.625 363.933594 26.035156 364.117188 25.4375 C 364.300781 24.835938 364.453125 24.226562 364.574219 23.613281 C 364.695312 22.996094 364.789062 22.378906 364.851562 21.753906 C 364.910156 21.128906 364.941406 20.503906 364.941406 19.875 C 364.941406 19.25 364.910156 18.621094 364.851562 17.996094 C 364.789062 17.375 364.695312 16.753906 364.574219 16.136719 C 364.453125 15.523438 364.300781 14.914062 364.117188 14.316406 C 363.933594 13.714844 363.722656 13.125 363.484375 12.542969 C 363.242188 11.964844 362.976562 11.398438 362.679688 10.84375 C 362.382812 10.292969 362.0625 9.753906 361.714844 9.230469 C 361.367188 8.710938 360.992188 8.207031 360.59375 7.722656 C 360.195312 7.238281 359.773438 6.773438 359.332031 6.328125 C 358.886719 5.886719 358.421875 5.464844 357.9375 5.066406 C 357.453125 4.667969 356.949219 4.296875 356.429688 3.945312 C 355.90625 3.597656 355.371094 3.277344 354.816406 2.980469 C 354.261719 2.683594 353.695312 2.417969 353.117188 2.175781 C 352.535156 1.9375 351.945312 1.726562 351.347656 1.542969 C 350.746094 1.359375 350.136719 1.207031 349.523438 1.085938 C 348.90625 0.964844 348.289062 0.871094 347.664062 0.8125 C 347.039062 0.75 346.414062 0.71875 345.785156 0.71875 Z M 345.785156 0.71875"/><path fill="#8889B9" d="M 364.941406 53.398438 C 364.3125 53.398438 363.691406 53.460938 363.074219 53.585938 C 362.457031 53.707031 361.859375 53.890625 361.277344 54.128906 C 360.695312 54.371094 360.144531 54.664062 359.621094 55.015625 C 359.097656 55.363281 358.613281 55.761719 358.167969 56.207031 C 357.726562 56.652344 357.328125 57.132812 356.976562 57.65625 C 356.628906 58.179688 356.332031 58.730469 356.09375 59.3125 C 355.851562 59.894531 355.671875 60.492188 355.546875 61.109375 C 355.425781 61.726562 355.363281 62.351562 355.363281 62.980469 C 355.363281 63.609375 355.425781 64.230469 355.546875 64.847656 C 355.671875 65.464844 355.851562 66.0625 356.09375 66.644531 C 356.332031 67.226562 356.628906 67.777344 356.976562 68.300781 C 357.328125 68.824219 357.726562 69.308594 358.167969 69.753906 C 358.613281 70.195312 359.097656 70.59375 359.621094 70.941406 C 360.144531 71.292969 360.695312 71.585938 361.277344 71.828125 C 361.859375 72.070312 362.457031 72.25 363.074219 72.375 C 363.691406 72.496094 364.3125 72.558594 364.941406 72.558594 C 365.570312 72.558594 366.195312 72.496094 366.8125 72.375 C 367.429688 72.25 368.027344 72.070312 368.609375 71.828125 C 369.1875 71.585938 369.742188 71.292969 370.265625 70.941406 C 370.785156 70.59375 371.269531 70.195312 371.714844 69.753906 C 372.160156 69.308594 372.558594 68.824219 372.90625 68.300781 C 373.257812 67.777344 373.550781 67.226562 373.792969 66.644531 C 374.03125 66.0625 374.214844 65.464844 374.335938 64.847656 C 374.460938 64.230469 374.519531 63.609375 374.519531 62.980469 C 374.519531 62.351562 374.460938 61.726562 374.335938 61.109375 C 374.214844 60.492188 374.03125 59.894531 373.792969 59.3125 C 373.550781 58.730469 373.257812 58.179688 372.90625 57.65625 C 372.558594 57.132812 372.160156 56.652344 371.714844 56.207031 C 371.269531 55.761719 370.785156 55.363281 370.265625 55.015625 C 369.742188 54.664062 369.1875 54.371094 368.609375 54.128906 C 368.027344 53.890625 367.429688 53.707031 366.8125 53.585938 C 366.195312 53.460938 365.570312 53.398438 364.941406 53.398438 Z M 364.941406 53.398438"/><path fill="#FBCD59" d="M 336.207031 302.441406 C 335.578125 302.441406 334.953125 302.503906 334.339844 302.625 C 333.722656 302.75 333.121094 302.929688 332.542969 303.171875 C 331.960938 303.414062 331.410156 303.707031 330.886719 304.058594 C 330.363281 304.40625 329.878906 304.804688 329.433594 305.246094 C 328.988281 305.691406 328.59375 306.175781 328.242188 306.699219 C 327.894531 307.222656 327.597656 307.773438 327.355469 308.355469 C 327.117188 308.9375 326.933594 309.535156 326.8125 310.152344 C 326.691406 310.769531 326.628906 311.390625 326.628906 312.019531 C 326.628906 312.648438 326.691406 313.273438 326.8125 313.890625 C 326.933594 314.507812 327.117188 315.105469 327.355469 315.6875 C 327.597656 316.269531 327.894531 316.820312 328.242188 317.34375 C 328.59375 317.867188 328.988281 318.347656 329.433594 318.792969 C 329.878906 319.238281 330.363281 319.636719 330.886719 319.984375 C 331.410156 320.335938 331.960938 320.628906 332.542969 320.871094 C 333.121094 321.109375 333.722656 321.292969 334.339844 321.414062 C 334.953125 321.539062 335.578125 321.597656 336.207031 321.597656 C 336.835938 321.597656 337.457031 321.539062 338.074219 321.414062 C 338.691406 321.292969 339.292969 321.109375 339.871094 320.871094 C 340.453125 320.628906 341.003906 320.335938 341.527344 319.984375 C 342.050781 319.636719 342.535156 319.238281 342.980469 318.792969 C 343.425781 318.347656 343.820312 317.867188 344.171875 317.34375 C 344.519531 316.820312 344.816406 316.269531 345.054688 315.6875 C 345.296875 315.105469 345.480469 314.507812 345.601562 313.890625 C 345.722656 313.273438 345.785156 312.648438 345.785156 312.019531 C 345.785156 311.390625 345.722656 310.769531 345.601562 310.152344 C 345.480469 309.535156 345.296875 308.9375 345.054688 308.355469 C 344.816406 307.773438 344.519531 307.222656 344.171875 306.699219 C 343.820312 306.175781 343.425781 305.691406 342.980469 305.246094 C 342.535156 304.804688 342.050781 304.40625 341.527344 304.058594 C 341.003906 303.707031 340.453125 303.414062 339.871094 303.171875 C 339.292969 302.929688 338.691406 302.75 338.074219 302.625 C 337.457031 302.503906 336.835938 302.441406 336.207031 302.441406 Z M 20.113281 230.601562 C 19.488281 230.601562 18.863281 230.632812 18.238281 230.695312 C 17.613281 230.757812 16.992188 230.847656 16.378906 230.972656 C 15.761719 231.09375 15.15625 231.246094 14.554688 231.429688 C 13.953125 231.609375 13.363281 231.820312 12.785156 232.0625 C 12.203125 232.300781 11.636719 232.570312 11.085938 232.867188 C 10.53125 233.160156 9.992188 233.484375 9.472656 233.832031 C 8.949219 234.179688 8.445312 234.554688 7.960938 234.953125 C 7.476562 235.351562 7.011719 235.769531 6.570312 236.214844 C 6.125 236.65625 5.703125 237.121094 5.304688 237.605469 C 4.910156 238.09375 4.535156 238.597656 4.1875 239.117188 C 3.835938 239.640625 3.515625 240.175781 3.21875 240.730469 C 2.925781 241.285156 2.65625 241.851562 2.417969 242.429688 C 2.175781 243.007812 1.964844 243.597656 1.78125 244.199219 C 1.601562 244.800781 1.449219 245.40625 1.324219 246.023438 C 1.203125 246.636719 1.113281 247.257812 1.050781 247.882812 C 0.988281 248.507812 0.957031 249.132812 0.957031 249.761719 C 0.957031 250.386719 0.988281 251.015625 1.050781 251.636719 C 1.113281 252.261719 1.203125 252.882812 1.324219 253.496094 C 1.449219 254.113281 1.601562 254.722656 1.78125 255.320312 C 1.964844 255.921875 2.175781 256.511719 2.417969 257.089844 C 2.65625 257.671875 2.925781 258.238281 3.21875 258.792969 C 3.515625 259.34375 3.835938 259.882812 4.1875 260.402344 C 4.535156 260.925781 4.910156 261.429688 5.304688 261.914062 C 5.703125 262.398438 6.125 262.863281 6.570312 263.304688 C 7.011719 263.75 7.476562 264.171875 7.960938 264.570312 C 8.445312 264.96875 8.949219 265.339844 9.472656 265.6875 C 9.992188 266.039062 10.53125 266.359375 11.085938 266.65625 C 11.636719 266.953125 12.203125 267.21875 12.785156 267.460938 C 13.363281 267.699219 13.953125 267.910156 14.554688 268.09375 C 15.15625 268.273438 15.761719 268.425781 16.378906 268.550781 C 16.992188 268.671875 17.613281 268.765625 18.238281 268.824219 C 18.863281 268.886719 19.488281 268.917969 20.113281 268.917969 C 20.742188 268.917969 21.367188 268.886719 21.992188 268.824219 C 22.617188 268.765625 23.238281 268.671875 23.851562 268.550781 C 24.46875 268.425781 25.074219 268.273438 25.675781 268.09375 C 26.277344 267.910156 26.867188 267.699219 27.445312 267.460938 C 28.027344 267.21875 28.59375 266.953125 29.144531 266.65625 C 29.699219 266.359375 30.238281 266.039062 30.757812 265.6875 C 31.28125 265.339844 31.78125 264.96875 32.269531 264.570312 C 32.753906 264.171875 33.21875 263.75 33.660156 263.304688 C 34.105469 262.863281 34.527344 262.398438 34.921875 261.914062 C 35.320312 261.429688 35.695312 260.925781 36.042969 260.402344 C 36.390625 259.882812 36.714844 259.34375 37.011719 258.792969 C 37.304688 258.238281 37.574219 257.671875 37.8125 257.089844 C 38.054688 256.511719 38.265625 255.921875 38.445312 255.320312 C 38.628906 254.722656 38.78125 254.113281 38.902344 253.496094 C 39.027344 252.882812 39.117188 252.261719 39.179688 251.636719 C 39.242188 251.015625 39.273438 250.386719 39.273438 249.761719 C 39.273438 249.132812 39.242188 248.507812 39.179688 247.882812 C 39.117188 247.257812 39.027344 246.636719 38.902344 246.023438 C 38.78125 245.40625 38.628906 244.800781 38.445312 244.199219 C 38.265625 243.597656 38.054688 243.007812 37.8125 242.429688 C 37.574219 241.851562 37.304688 241.285156 37.011719 240.730469 C 36.714844 240.175781 36.390625 239.640625 36.042969 239.117188 C 35.695312 238.597656 35.320312 238.09375 34.921875 237.605469 C 34.527344 237.121094 34.105469 236.65625 33.660156 236.214844 C 33.21875 235.769531 32.753906 235.351562 32.269531 234.953125 C 31.78125 234.554688 31.28125 234.179688 30.757812 233.832031 C 30.238281 233.484375 29.699219 233.160156 29.144531 232.867188 C 28.59375 232.570312 28.027344 232.300781 27.445312 232.0625 C 26.867188 231.820312 26.277344 231.609375 25.675781 231.429688 C 25.074219 231.246094 24.46875 231.09375 23.851562 230.972656 C 23.238281 230.847656 22.617188 230.757812 21.992188 230.695312 C 21.367188 230.632812 20.742188 230.601562 20.113281 230.601562 Z M 20.113281 230.601562"/><path fill="#8889B9" d="M 68.007812 355.125 C 67.378906 355.125 66.753906 355.1875 66.140625 355.308594 C 65.523438 355.429688 64.921875 355.613281 64.34375 355.855469 C 63.761719 356.09375 63.210938 356.390625 62.6875 356.738281 C 62.164062 357.089844 61.679688 357.484375 61.234375 357.929688 C 60.789062 358.375 60.394531 358.859375 60.042969 359.382812 C 59.695312 359.90625 59.398438 360.457031 59.160156 361.039062 C 58.917969 361.617188 58.734375 362.21875 58.613281 362.835938 C 58.492188 363.453125 58.429688 364.074219 58.429688 364.703125 C 58.429688 365.332031 58.492188 365.953125 58.613281 366.570312 C 58.734375 367.1875 58.917969 367.789062 59.160156 368.367188 C 59.398438 368.949219 59.695312 369.5 60.042969 370.023438 C 60.394531 370.546875 60.789062 371.03125 61.234375 371.476562 C 61.679688 371.921875 62.164062 372.316406 62.6875 372.667969 C 63.210938 373.015625 63.761719 373.3125 64.34375 373.550781 C 64.921875 373.792969 65.523438 373.976562 66.140625 374.097656 C 66.753906 374.21875 67.378906 374.28125 68.007812 374.28125 C 68.636719 374.28125 69.257812 374.21875 69.875 374.097656 C 70.492188 373.976562 71.09375 373.792969 71.671875 373.550781 C 72.253906 373.3125 72.804688 373.015625 73.328125 372.667969 C 73.851562 372.316406 74.335938 371.921875 74.78125 371.476562 C 75.226562 371.03125 75.621094 370.546875 75.972656 370.023438 C 76.320312 369.5 76.617188 368.949219 76.855469 368.367188 C 77.097656 367.789062 77.28125 367.1875 77.402344 366.570312 C 77.523438 365.953125 77.585938 365.332031 77.585938 364.703125 C 77.585938 364.074219 77.523438 363.453125 77.402344 362.835938 C 77.28125 362.21875 77.097656 361.617188 76.855469 361.039062 C 76.617188 360.457031 76.320312 359.90625 75.972656 359.382812 C 75.621094 358.859375 75.226562 358.375 74.78125 357.929688 C 74.335938 357.484375 73.851562 357.089844 73.328125 356.738281 C 72.804688 356.390625 72.253906 356.09375 71.671875 355.855469 C 71.09375 355.613281 70.492188 355.429688 69.875 355.308594 C 69.257812 355.1875 68.636719 355.125 68.007812 355.125 Z M 68.007812 355.125"/><path fill="#FFF" d="M 36.878906 182.710938 C 36.089844 182.710938 35.3125 182.789062 34.542969 182.941406 C 33.769531 183.09375 33.023438 183.320312 32.296875 183.621094 C 31.570312 183.921875 30.878906 184.292969 30.226562 184.730469 C 29.570312 185.164062 28.96875 185.660156 28.410156 186.21875 C 27.855469 186.773438 27.359375 187.378906 26.921875 188.03125 C 26.484375 188.6875 26.117188 189.375 25.816406 190.101562 C 25.515625 190.828125 25.289062 191.578125 25.132812 192.347656 C 24.980469 193.117188 24.902344 193.898438 24.902344 194.683594 C 24.902344 195.46875 24.980469 196.25 25.132812 197.019531 C 25.289062 197.789062 25.515625 198.539062 25.816406 199.265625 C 26.117188 199.992188 26.484375 200.683594 26.921875 201.335938 C 27.359375 201.988281 27.855469 202.59375 28.410156 203.148438 C 28.96875 203.707031 29.570312 204.203125 30.226562 204.640625 C 30.878906 205.074219 31.570312 205.445312 32.296875 205.746094 C 33.023438 206.046875 33.769531 206.273438 34.542969 206.425781 C 35.3125 206.582031 36.089844 206.65625 36.878906 206.65625 C 37.664062 206.65625 38.441406 206.582031 39.214844 206.425781 C 39.984375 206.273438 40.734375 206.046875 41.460938 205.746094 C 42.1875 205.445312 42.875 205.074219 43.53125 204.640625 C 44.183594 204.203125 44.789062 203.707031 45.34375 203.148438 C 45.898438 202.59375 46.394531 201.988281 46.832031 201.335938 C 47.269531 200.683594 47.636719 199.992188 47.9375 199.265625 C 48.238281 198.539062 48.46875 197.789062 48.621094 197.019531 C 48.773438 196.25 48.851562 195.46875 48.851562 194.683594 C 48.851562 193.898438 48.773438 193.117188 48.621094 192.347656 C 48.46875 191.578125 48.238281 190.828125 47.9375 190.101562 C 47.636719 189.375 47.269531 188.6875 46.832031 188.03125 C 46.394531 187.378906 45.898438 186.773438 45.34375 186.21875 C 44.789062 185.660156 44.183594 185.164062 43.53125 184.730469 C 42.875 184.292969 42.1875 183.921875 41.460938 183.621094 C 40.734375 183.320312 39.984375 183.09375 39.214844 182.941406 C 38.441406 182.789062 37.664062 182.710938 36.878906 182.710938 Z M 329.023438 101.292969 C 328.550781 101.292969 328.085938 101.339844 327.621094 101.429688 C 327.160156 101.523438 326.710938 101.660156 326.273438 101.839844 C 325.839844 102.019531 325.425781 102.242188 325.03125 102.503906 C 324.640625 102.765625 324.277344 103.0625 323.941406 103.398438 C 323.609375 103.730469 323.3125 104.09375 323.050781 104.484375 C 322.789062 104.878906 322.566406 105.292969 322.386719 105.726562 C 322.207031 106.164062 322.070312 106.613281 321.976562 107.074219 C 321.886719 107.539062 321.839844 108.003906 321.839844 108.476562 C 321.839844 108.949219 321.886719 109.414062 321.976562 109.878906 C 322.070312 110.339844 322.207031 110.789062 322.386719 111.226562 C 322.566406 111.660156 322.789062 112.074219 323.050781 112.46875 C 323.3125 112.859375 323.609375 113.222656 323.941406 113.558594 C 324.277344 113.890625 324.640625 114.1875 325.03125 114.449219 C 325.425781 114.710938 325.839844 114.933594 326.273438 115.113281 C 326.710938 115.292969 327.160156 115.429688 327.621094 115.523438 C 328.085938 115.613281 328.550781 115.660156 329.023438 115.660156 C 329.496094 115.660156 329.960938 115.613281 330.425781 115.523438 C 330.886719 115.429688 331.335938 115.292969 331.773438 115.113281 C 332.207031 114.933594 332.621094 114.710938 333.015625 114.449219 C 333.40625 114.1875 333.769531 113.890625 334.101562 113.558594 C 334.4375 113.222656 334.734375 112.859375 334.996094 112.46875 C 335.257812 112.074219 335.480469 111.660156 335.660156 111.226562 C 335.839844 110.789062 335.976562 110.339844 336.070312 109.878906 C 336.160156 109.414062 336.207031 108.949219 336.207031 108.476562 C 336.207031 108.003906 336.160156 107.539062 336.070312 107.074219 C 335.976562 106.613281 335.839844 106.164062 335.660156 105.726562 C 335.480469 105.292969 335.257812 104.878906 334.996094 104.484375 C 334.734375 104.09375 334.4375 103.730469 334.101562 103.398438 C 333.769531 103.0625 333.40625 102.765625 333.015625 102.503906 C 332.621094 102.242188 332.207031 102.019531 331.773438 101.839844 C 331.335938 101.660156 330.886719 101.523438 330.425781 101.429688 C 329.960938 101.339844 329.496094 101.292969 329.023438 101.292969 Z M 329.023438 101.292969"/><path fill="#A3A3CD" d="M 187.738281 70.761719 C 185.839844 70.761719 183.9375 70.808594 182.039062 70.902344 C 180.140625 70.996094 178.246094 71.132812 176.355469 71.320312 C 174.464844 71.507812 172.578125 71.738281 170.699219 72.019531 C 168.816406 72.296875 166.945312 72.621094 165.082031 72.992188 C 163.21875 73.363281 161.363281 73.78125 159.519531 74.242188 C 157.675781 74.703125 155.84375 75.210938 154.027344 75.761719 C 152.207031 76.3125 150.402344 76.910156 148.613281 77.550781 C 146.824219 78.191406 145.050781 78.875 143.292969 79.601562 C 141.539062 80.328125 139.800781 81.097656 138.082031 81.914062 C 136.363281 82.726562 134.667969 83.578125 132.992188 84.476562 C 131.316406 85.371094 129.660156 86.308594 128.03125 87.285156 C 126.402344 88.261719 124.796875 89.277344 123.214844 90.335938 C 121.636719 91.390625 120.082031 92.484375 118.554688 93.617188 C 117.027344 94.75 115.53125 95.917969 114.0625 97.125 C 112.59375 98.328125 111.152344 99.570312 109.746094 100.847656 C 108.335938 102.125 106.960938 103.433594 105.617188 104.777344 C 104.273438 106.121094 102.960938 107.5 101.683594 108.90625 C 100.410156 110.316406 99.167969 111.753906 97.960938 113.222656 C 96.757812 114.691406 95.585938 116.191406 94.453125 117.71875 C 93.324219 119.242188 92.230469 120.796875 91.171875 122.378906 C 90.117188 123.957031 89.101562 125.5625 88.121094 127.195312 C 87.144531 128.824219 86.210938 130.476562 85.3125 132.152344 C 84.417969 133.828125 83.5625 135.527344 82.75 137.246094 C 81.9375 138.964844 81.167969 140.699219 80.441406 142.457031 C 79.710938 144.210938 79.027344 145.984375 78.386719 147.773438 C 77.75 149.566406 77.152344 151.367188 76.601562 153.1875 C 76.046875 155.007812 75.542969 156.835938 75.082031 158.679688 C 74.617188 160.523438 74.203125 162.378906 73.832031 164.242188 C 73.460938 166.109375 73.136719 167.980469 72.855469 169.859375 C 72.578125 171.738281 72.34375 173.625 72.160156 175.519531 C 71.972656 177.410156 71.832031 179.304688 71.738281 181.203125 C 71.644531 183.101562 71.597656 185 71.597656 186.902344 C 71.597656 188.800781 71.644531 190.703125 71.738281 192.601562 C 71.832031 194.5 71.972656 196.394531 72.160156 198.285156 C 72.34375 200.175781 72.578125 202.0625 72.855469 203.941406 C 73.136719 205.824219 73.460938 207.695312 73.832031 209.558594 C 74.203125 211.421875 74.617188 213.277344 75.082031 215.121094 C 75.542969 216.964844 76.046875 218.796875 76.601562 220.613281 C 77.152344 222.433594 77.75 224.238281 78.386719 226.027344 C 79.027344 227.816406 79.710938 229.589844 80.441406 231.347656 C 81.167969 233.101562 81.9375 234.839844 82.75 236.558594 C 83.5625 238.277344 84.417969 239.972656 85.3125 241.648438 C 86.210938 243.324219 87.144531 244.980469 88.121094 246.609375 C 89.101562 248.238281 90.117188 249.84375 91.171875 251.425781 C 92.230469 253.003906 93.324219 254.558594 94.453125 256.085938 C 95.585938 257.613281 96.757812 259.109375 97.960938 260.578125 C 99.167969 262.050781 100.410156 263.488281 101.683594 264.894531 C 102.960938 266.304688 104.273438 267.679688 105.617188 269.023438 C 106.960938 270.367188 108.335938 271.679688 109.746094 272.957031 C 111.152344 274.230469 112.59375 275.472656 114.0625 276.679688 C 115.53125 277.882812 117.027344 279.054688 118.554688 280.1875 C 120.082031 281.316406 121.636719 282.410156 123.214844 283.46875 C 124.796875 284.523438 126.402344 285.539062 128.03125 286.519531 C 129.660156 287.496094 131.316406 288.429688 132.992188 289.328125 C 134.667969 290.222656 136.363281 291.078125 138.082031 291.890625 C 139.800781 292.703125 141.539062 293.472656 143.292969 294.199219 C 145.050781 294.929688 146.824219 295.613281 148.613281 296.253906 C 150.402344 296.890625 152.207031 297.488281 154.027344 298.039062 C 155.84375 298.59375 157.675781 299.097656 159.519531 299.558594 C 161.363281 300.023438 163.21875 300.4375 165.082031 300.808594 C 166.945312 301.179688 168.816406 301.503906 170.699219 301.785156 C 172.578125 302.0625 174.464844 302.296875 176.355469 302.480469 C 178.246094 302.667969 180.140625 302.808594 182.039062 302.902344 C 183.9375 302.996094 185.839844 303.042969 187.738281 303.042969 C 189.640625 303.042969 191.539062 302.996094 193.4375 302.902344 C 195.335938 302.808594 197.230469 302.667969 199.125 302.480469 C 201.015625 302.296875 202.902344 302.0625 204.78125 301.785156 C 206.660156 301.503906 208.53125 301.179688 210.398438 300.808594 C 212.261719 300.4375 214.117188 300.023438 215.960938 299.5625 C 217.804688 299.097656 219.632812 298.59375 221.453125 298.039062 C 223.273438 297.488281 225.074219 296.890625 226.867188 296.253906 C 228.65625 295.613281 230.429688 294.929688 232.183594 294.199219 C 233.941406 293.472656 235.675781 292.703125 237.394531 291.890625 C 239.113281 291.078125 240.8125 290.222656 242.488281 289.328125 C 244.164062 288.429688 245.816406 287.496094 247.445312 286.519531 C 249.078125 285.539062 250.683594 284.523438 252.261719 283.46875 C 253.84375 282.410156 255.398438 281.316406 256.921875 280.1875 C 258.449219 279.054688 259.949219 277.882812 261.417969 276.679688 C 262.886719 275.472656 264.324219 274.230469 265.734375 272.957031 C 267.140625 271.679688 268.519531 270.367188 269.863281 269.023438 C 271.207031 267.679688 272.515625 266.304688 273.792969 264.894531 C 275.070312 263.488281 276.3125 262.050781 277.515625 260.578125 C 278.722656 259.109375 279.890625 257.613281 281.023438 256.085938 C 282.15625 254.558594 283.25 253.003906 284.304688 251.425781 C 285.363281 249.84375 286.378906 248.238281 287.355469 246.609375 C 288.332031 244.980469 289.269531 243.324219 290.164062 241.648438 C 291.0625 239.972656 291.914062 238.277344 292.730469 236.558594 C 293.542969 234.839844 294.3125 233.101562 295.039062 231.347656 C 295.765625 229.589844 296.449219 227.816406 297.089844 226.027344 C 297.730469 224.238281 298.328125 222.433594 298.878906 220.613281 C 299.429688 218.796875 299.9375 216.964844 300.398438 215.121094 C 300.859375 213.277344 301.277344 211.421875 301.648438 209.558594 C 302.019531 207.695312 302.34375 205.824219 302.621094 203.941406 C 302.902344 202.0625 303.132812 200.175781 303.320312 198.285156 C 303.507812 196.394531 303.644531 194.5 303.738281 192.601562 C 303.832031 190.703125 303.878906 188.800781 303.878906 186.902344 C 303.878906 185 303.832031 183.101562 303.738281 181.203125 C 303.644531 179.304688 303.507812 177.410156 303.320312 175.519531 C 303.132812 173.625 302.902344 171.738281 302.621094 169.859375 C 302.34375 167.980469 302.019531 166.109375 301.648438 164.242188 C 301.277344 162.378906 300.859375 160.523438 300.398438 158.679688 C 299.9375 156.835938 299.429688 155.007812 298.878906 153.1875 C 298.328125 151.367188 297.730469 149.566406 297.089844 147.773438 C 296.449219 145.984375 295.765625 144.210938 295.039062 142.457031 C 294.3125 140.699219 293.542969 138.964844 292.730469 137.246094 C 291.914062 135.527344 291.0625 133.828125 290.164062 132.152344 C 289.269531 130.476562 288.332031 128.824219 287.355469 127.195312 C 286.378906 125.5625 285.363281 123.957031 284.304688 122.378906 C 283.25 120.796875 282.15625 119.242188 281.023438 117.71875 C 279.890625 116.191406 278.722656 114.691406 277.515625 113.222656 C 276.3125 111.753906 275.070312 110.316406 273.792969 108.90625 C 272.515625 107.5 271.207031 106.121094 269.863281 104.777344 C 268.519531 103.433594 267.140625 102.125 265.734375 100.847656 C 264.324219 99.570312 262.886719 98.328125 261.417969 97.125 C 259.949219 95.917969 258.449219 94.75 256.921875 93.617188 C 255.398438 92.484375 253.84375 91.390625 252.261719 90.335938 C 250.683594 89.277344 249.078125 88.261719 247.445312 87.285156 C 245.816406 86.308594 244.164062 85.371094 242.488281 84.476562 C 240.8125 83.578125 239.113281 82.726562 237.394531 81.914062 C 235.675781 81.097656 233.941406 80.328125 232.183594 79.601562 C 230.429688 78.875 228.65625 78.191406 226.867188 77.550781 C 225.074219 76.910156 223.273438 76.3125 221.453125 75.761719 C 219.632812 75.210938 217.804688 74.703125 215.960938 74.242188 C 214.117188 73.78125 212.261719 73.363281 210.398438 72.992188 C 208.53125 72.621094 206.660156 72.296875 204.78125 72.019531 C 202.902344 71.738281 201.015625 71.507812 199.125 71.320312 C 197.230469 71.132812 195.335938 70.996094 193.4375 70.902344 C 191.539062 70.808594 189.640625 70.761719 187.738281 70.761719 Z M 187.738281 70.761719"/><path fill="#472B29" d="M 187.738281 306.394531 C 121.851562 306.394531 68.246094 252.792969 68.246094 186.902344 C 68.246094 121.011719 121.851562 67.410156 187.738281 67.410156 C 253.625 67.410156 307.230469 121.011719 307.230469 186.902344 C 307.230469 252.792969 253.625 306.394531 187.738281 306.394531 Z M 187.738281 74.113281 C 125.550781 74.113281 74.953125 124.707031 74.953125 186.902344 C 74.953125 249.09375 125.550781 299.6875 187.738281 299.6875 C 249.929688 299.6875 300.527344 249.09375 300.527344 186.902344 C 300.527344 124.707031 249.929688 74.113281 187.738281 74.113281 Z M 187.738281 74.113281"/><path fill="#565FA1" d="M 187.738281 87.726562 C 186.132812 87.722656 184.527344 87.761719 182.921875 87.839844 C 181.316406 87.921875 179.714844 88.039062 178.113281 88.195312 C 176.515625 88.351562 174.917969 88.546875 173.328125 88.785156 C 171.738281 89.019531 170.15625 89.292969 168.582031 89.605469 C 167.003906 89.917969 165.4375 90.269531 163.878906 90.660156 C 162.320312 91.050781 160.769531 91.480469 159.230469 91.945312 C 157.695312 92.410156 156.167969 92.914062 154.65625 93.457031 C 153.140625 93.996094 151.640625 94.574219 150.15625 95.1875 C 148.671875 95.804688 147.203125 96.453125 145.75 97.140625 C 144.296875 97.828125 142.863281 98.550781 141.445312 99.308594 C 140.027344 100.0625 138.628906 100.855469 137.25 101.683594 C 135.871094 102.507812 134.515625 103.367188 133.175781 104.257812 C 131.839844 105.152344 130.527344 106.078125 129.234375 107.035156 C 127.945312 107.992188 126.679688 108.980469 125.433594 110 C 124.191406 111.019531 122.976562 112.066406 121.785156 113.144531 C 120.59375 114.226562 119.429688 115.332031 118.292969 116.46875 C 117.15625 117.605469 116.050781 118.769531 114.96875 119.960938 C 113.890625 121.148438 112.839844 122.367188 111.820312 123.609375 C 110.800781 124.851562 109.8125 126.117188 108.855469 127.410156 C 107.898438 128.699219 106.972656 130.011719 106.078125 131.347656 C 105.1875 132.683594 104.324219 134.042969 103.5 135.421875 C 102.671875 136.800781 101.882812 138.195312 101.125 139.613281 C 100.367188 141.03125 99.644531 142.464844 98.957031 143.917969 C 98.269531 145.371094 97.617188 146.839844 97.003906 148.324219 C 96.386719 149.808594 95.808594 151.308594 95.265625 152.824219 C 94.726562 154.335938 94.222656 155.859375 93.753906 157.398438 C 93.289062 158.9375 92.859375 160.484375 92.46875 162.042969 C 92.078125 163.601562 91.726562 165.171875 91.414062 166.746094 C 91.097656 168.324219 90.824219 169.90625 90.589844 171.496094 C 90.351562 173.085938 90.15625 174.679688 90 176.28125 C 89.839844 177.878906 89.722656 179.480469 89.644531 181.085938 C 89.566406 182.691406 89.527344 184.296875 89.527344 185.90625 C 89.527344 187.511719 89.566406 189.117188 89.644531 190.722656 C 89.722656 192.328125 89.839844 193.929688 90 195.53125 C 90.15625 197.128906 90.351562 198.722656 90.589844 200.3125 C 90.824219 201.902344 91.097656 203.488281 91.414062 205.0625 C 91.726562 206.640625 92.078125 208.207031 92.46875 209.765625 C 92.859375 211.324219 93.289062 212.875 93.753906 214.410156 C 94.222656 215.949219 94.726562 217.476562 95.265625 218.988281 C 95.808594 220.5 96.386719 222 97.003906 223.484375 C 97.617188 224.96875 98.269531 226.4375 98.957031 227.890625 C 99.644531 229.34375 100.367188 230.777344 101.125 232.195312 C 101.882812 233.613281 102.671875 235.011719 103.5 236.390625 C 104.324219 237.769531 105.1875 239.125 106.078125 240.460938 C 106.972656 241.796875 107.898438 243.109375 108.855469 244.402344 C 109.8125 245.691406 110.800781 246.960938 111.820312 248.203125 C 112.839844 249.445312 113.890625 250.660156 114.96875 251.851562 C 116.050781 253.042969 117.15625 254.203125 118.292969 255.339844 C 119.429688 256.476562 120.59375 257.585938 121.785156 258.664062 C 122.976562 259.742188 124.191406 260.792969 125.433594 261.8125 C 126.679688 262.832031 127.945312 263.820312 129.234375 264.777344 C 130.527344 265.734375 131.839844 266.65625 133.175781 267.550781 C 134.515625 268.441406 135.871094 269.300781 137.25 270.128906 C 138.628906 270.953125 140.027344 271.746094 141.445312 272.503906 C 142.863281 273.261719 144.296875 273.984375 145.75 274.667969 C 147.203125 275.355469 148.671875 276.007812 150.15625 276.621094 C 151.640625 277.234375 153.140625 277.8125 154.65625 278.355469 C 156.167969 278.894531 157.695312 279.398438 159.230469 279.867188 C 160.769531 280.332031 162.320312 280.761719 163.878906 281.148438 C 165.4375 281.539062 167.003906 281.890625 168.582031 282.203125 C 170.15625 282.515625 171.738281 282.792969 173.328125 283.027344 C 174.917969 283.261719 176.515625 283.457031 178.113281 283.617188 C 179.714844 283.773438 181.316406 283.890625 182.921875 283.96875 C 184.527344 284.046875 186.132812 284.085938 187.738281 284.085938 C 189.347656 284.085938 190.953125 284.046875 192.558594 283.96875 C 194.164062 283.890625 195.765625 283.773438 197.363281 283.617188 C 198.964844 283.457031 200.558594 283.261719 202.148438 283.027344 C 203.738281 282.792969 205.320312 282.519531 206.898438 282.203125 C 208.472656 281.890625 210.042969 281.539062 211.601562 281.148438 C 213.160156 280.761719 214.710938 280.332031 216.246094 279.867188 C 217.785156 279.398438 219.3125 278.894531 220.824219 278.355469 C 222.335938 277.8125 223.835938 277.234375 225.320312 276.621094 C 226.808594 276.007812 228.277344 275.355469 229.730469 274.667969 C 231.183594 273.984375 232.617188 273.261719 234.035156 272.503906 C 235.453125 271.746094 236.851562 270.953125 238.230469 270.128906 C 239.609375 269.300781 240.964844 268.441406 242.300781 267.550781 C 243.636719 266.65625 244.953125 265.734375 246.242188 264.777344 C 247.535156 263.820312 248.800781 262.832031 250.042969 261.8125 C 251.285156 260.792969 252.503906 259.742188 253.695312 258.664062 C 254.882812 257.585938 256.046875 256.476562 257.183594 255.339844 C 258.320312 254.203125 259.429688 253.042969 260.507812 251.851562 C 261.589844 250.660156 262.636719 249.445312 263.65625 248.203125 C 264.679688 246.960938 265.667969 245.691406 266.625 244.402344 C 267.582031 243.109375 268.507812 241.796875 269.398438 240.460938 C 270.292969 239.125 271.152344 237.769531 271.980469 236.390625 C 272.804688 235.011719 273.597656 233.613281 274.355469 232.195312 C 275.113281 230.777344 275.835938 229.34375 276.523438 227.890625 C 277.210938 226.4375 277.863281 224.96875 278.476562 223.484375 C 279.09375 222 279.671875 220.5 280.210938 218.988281 C 280.753906 217.476562 281.257812 215.949219 281.722656 214.410156 C 282.191406 212.875 282.621094 211.324219 283.011719 209.765625 C 283.398438 208.207031 283.753906 206.640625 284.066406 205.0625 C 284.378906 203.488281 284.65625 201.902344 284.890625 200.3125 C 285.125 198.722656 285.324219 197.128906 285.480469 195.53125 C 285.636719 193.929688 285.757812 192.328125 285.835938 190.722656 C 285.914062 189.117188 285.953125 187.511719 285.953125 185.90625 C 285.953125 184.296875 285.914062 182.691406 285.835938 181.085938 C 285.757812 179.480469 285.636719 177.878906 285.480469 176.28125 C 285.324219 174.679688 285.125 173.085938 284.890625 171.496094 C 284.65625 169.90625 284.378906 168.324219 284.066406 166.746094 C 283.753906 165.171875 283.398438 163.601562 283.007812 162.042969 C 282.621094 160.484375 282.191406 158.9375 281.722656 157.398438 C 281.257812 155.859375 280.753906 154.335938 280.210938 152.824219 C 279.671875 151.308594 279.089844 149.808594 278.476562 148.324219 C 277.863281 146.839844 277.210938 145.371094 276.523438 143.917969 C 275.835938 142.464844 275.113281 141.03125 274.355469 139.613281 C 273.597656 138.195312 272.804688 136.800781 271.980469 135.421875 C 271.152344 134.042969 270.292969 132.683594 269.398438 131.347656 C 268.507812 130.011719 267.582031 128.699219 266.625 127.410156 C 265.667969 126.117188 264.679688 124.851562 263.65625 123.609375 C 262.636719 122.367188 261.589844 121.148438 260.507812 119.960938 C 259.429688 118.769531 258.320312 117.605469 257.183594 116.46875 C 256.046875 115.332031 254.882812 114.226562 253.695312 113.144531 C 252.503906 112.066406 251.285156 111.019531 250.042969 110 C 248.800781 108.980469 247.535156 107.992188 246.242188 107.035156 C 244.953125 106.078125 243.636719 105.152344 242.300781 104.257812 C 240.964844 103.367188 239.609375 102.507812 238.230469 101.683594 C 236.851562 100.855469 235.453125 100.0625 234.035156 99.308594 C 232.617188 98.550781 231.183594 97.828125 229.730469 97.140625 C 228.277344 96.453125 226.808594 95.804688 225.320312 95.1875 C 223.835938 94.574219 222.335938 93.996094 220.824219 93.457031 C 219.3125 92.914062 217.785156 92.410156 216.246094 91.945312 C 214.710938 91.480469 213.160156 91.050781 211.601562 90.660156 C 210.042969 90.269531 208.472656 89.917969 206.898438 89.605469 C 205.320312 89.292969 203.738281 89.019531 202.148438 88.785156 C 200.558594 88.546875 198.964844 88.351562 197.363281 88.195312 C 195.765625 88.039062 194.164062 87.921875 192.558594 87.839844 C 190.953125 87.761719 189.347656 87.722656 187.738281 87.726562 Z M 187.738281 87.726562"/><path fill="#472B29" d="M 280.765625 161.757812 C 279.742188 161.757812 278.792969 161.09375 278.476562 160.0625 C 278.054688 158.6875 277.601562 157.328125 277.117188 155.976562 C 275.238281 150.738281 272.875 145.636719 270.078125 140.800781 C 269.410156 139.660156 269.804688 138.191406 270.949219 137.527344 C 272.09375 136.851562 273.558594 137.253906 274.21875 138.40625 C 277.160156 143.488281 279.652344 148.855469 281.625 154.359375 C 282.132812 155.78125 282.609375 157.207031 283.050781 158.652344 C 283.4375 159.917969 282.730469 161.257812 281.460938 161.648438 C 281.230469 161.722656 280.996094 161.757812 280.765625 161.757812 Z M 280.765625 161.757812"/><path fill="#472B29" d="M 187.738281 286.878906 C 132.609375 286.878906 87.761719 242.160156 87.761719 187.199219 C 87.761719 132.238281 132.609375 87.523438 187.738281 87.523438 C 216.355469 87.523438 243.648438 99.785156 262.625 121.160156 C 264.054688 122.773438 265.441406 124.441406 266.765625 126.144531 C 267.578125 127.1875 267.390625 128.6875 266.351562 129.5 C 265.304688 130.320312 263.800781 130.128906 262.988281 129.082031 C 261.722656 127.457031 260.402344 125.875 259.042969 124.339844 C 240.976562 103.984375 214.984375 92.308594 187.738281 92.308594 C 135.253906 92.308594 92.550781 134.875 92.550781 187.199219 C 92.550781 239.519531 135.253906 282.089844 187.738281 282.089844 C 240.226562 282.089844 282.925781 239.519531 282.925781 187.199219 C 282.925781 182.433594 282.566406 177.640625 281.863281 172.960938 C 281.667969 171.65625 282.566406 170.4375 283.875 170.238281 C 285.207031 170.023438 286.402344 170.945312 286.597656 172.25 C 287.335938 177.160156 287.714844 182.195312 287.714844 187.199219 C 287.714844 242.160156 242.867188 286.878906 187.738281 286.878906 Z M 187.738281 286.878906"/><path fill="#FEFDEF" d="M 242.796875 149.605469 C 244.546875 141.605469 243.785156 131.679688 240.46875 121.742188 C 223.121094 121.742188 210.109375 134.75 210.109375 134.75 C 210.109375 134.75 210.1875 134.835938 210.207031 134.859375 C 209.898438 134.855469 209.601562 134.816406 209.292969 134.816406 L 166.1875 134.816406 C 165.980469 134.816406 165.78125 134.847656 165.574219 134.847656 C 165.589844 134.828125 165.65625 134.75 165.65625 134.75 C 165.65625 134.75 152.644531 121.742188 135.296875 121.742188 C 132.019531 131.574219 131.226562 141.398438 132.902344 149.363281 C 125.347656 157.480469 120.691406 168.34375 120.691406 180.316406 C 120.691406 205.445312 141.058594 225.8125 166.1875 225.8125 L 171.328125 225.8125 C 165.082031 229.210938 160.570312 235.292969 159.386719 242.566406 C 151.148438 243.679688 140.332031 243.429688 135.304688 235.890625 C 126.632812 222.878906 122.292969 222.878906 117.960938 222.878906 C 113.625 222.878906 113.621094 227.21875 117.960938 231.550781 C 122.296875 235.890625 122.296875 235.890625 126.632812 244.5625 C 130.332031 251.953125 140.101562 260.359375 159.007812 257.316406 L 159.007812 274.191406 C 159.007812 276.332031 159.386719 278.363281 159.921875 280.332031 C 171.539062 283.09375 191.0625 285.410156 215.789062 279.605469 C 216.203125 277.863281 216.476562 276.066406 216.476562 274.195312 L 216.476562 246.339844 C 216.476562 237.441406 211.460938 229.789062 204.152344 225.8125 L 209.292969 225.8125 C 234.421875 225.8125 254.789062 205.445312 254.789062 180.316406 C 254.789062 168.460938 250.21875 157.707031 242.796875 149.605469 Z M 242.796875 149.605469"/><path fill="#472B29" d="M 185.5 285.613281 C 174.816406 285.613281 165.980469 284.238281 159.363281 282.664062 C 158.511719 282.460938 157.835938 281.804688 157.605469 280.960938 C 156.925781 278.460938 156.609375 276.308594 156.609375 274.195312 L 156.609375 260.058594 C 134.753906 262.519531 126.539062 249.742188 124.488281 245.636719 C 120.320312 237.308594 120.320312 237.308594 116.265625 233.246094 C 112.90625 229.890625 111.574219 226.265625 112.695312 223.558594 C 113.503906 221.605469 115.421875 220.484375 117.953125 220.484375 C 123.785156 220.484375 128.582031 221.496094 137.292969 234.558594 C 141.3125 240.585938 150.109375 241.164062 157.375 240.394531 C 158.476562 235.707031 160.84375 231.507812 164.191406 228.160156 C 138.707031 227.117188 118.296875 206.058594 118.296875 180.316406 C 118.296875 168.621094 122.5625 157.421875 130.332031 148.644531 C 128.863281 140.398438 129.8125 130.632812 133.03125 120.988281 C 133.355469 120.007812 134.273438 119.347656 135.300781 119.347656 C 151.378906 119.347656 163.707031 129.695312 166.679688 132.421875 L 209.085938 132.421875 C 212.058594 129.695312 224.386719 119.347656 240.464844 119.347656 C 241.496094 119.347656 242.410156 120.007812 242.734375 120.988281 C 245.988281 130.742188 246.910156 140.601562 245.375 148.90625 C 252.992188 157.652344 257.179688 168.765625 257.179688 180.320312 C 257.179688 206.0625 236.761719 227.125 211.273438 228.171875 C 216.066406 232.945312 218.863281 239.445312 218.863281 246.339844 L 218.863281 274.195312 C 218.863281 276.074219 218.617188 278.027344 218.109375 280.164062 C 217.902344 281.046875 217.207031 281.734375 216.328125 281.941406 C 204.894531 284.625 194.535156 285.613281 185.5 285.613281 Z M 161.886719 278.328125 C 173.4375 280.898438 191.355469 282.640625 213.753906 277.621094 C 213.96875 276.40625 214.082031 275.277344 214.082031 274.195312 L 214.082031 246.339844 C 214.082031 238.691406 209.835938 231.636719 203.007812 227.921875 C 202.046875 227.398438 201.5625 226.289062 201.828125 225.226562 C 202.097656 224.160156 203.054688 223.417969 204.148438 223.417969 L 209.292969 223.417969 C 233.054688 223.417969 252.394531 204.085938 252.394531 180.316406 C 252.394531 169.554688 248.355469 159.222656 241.03125 151.226562 C 240.503906 150.652344 240.292969 149.855469 240.453125 149.097656 C 242.039062 141.835938 241.421875 133.046875 238.730469 124.1875 C 224.984375 124.917969 214.316406 134.117188 212.1875 136.082031 C 211.753906 136.804688 211.015625 137.261719 210.132812 137.261719 C 210.101562 137.261719 209.675781 137.230469 209.640625 137.230469 L 166.1875 137.210938 C 165.460938 137.210938 164.597656 136.890625 164.070312 136.347656 L 163.96875 136.445312 C 163.851562 136.332031 152.292969 125 137.039062 124.179688 C 134.371094 132.949219 133.734375 141.65625 135.253906 148.863281 C 135.417969 149.625 135.191406 150.421875 134.660156 150.992188 C 127.195312 159.011719 123.085938 169.429688 123.085938 180.316406 C 123.085938 204.085938 142.421875 223.417969 166.1875 223.417969 L 171.328125 223.417969 C 172.421875 223.417969 173.375 224.160156 173.644531 225.226562 C 173.917969 226.289062 173.433594 227.394531 172.464844 227.921875 C 166.695312 231.054688 162.789062 236.539062 161.75 242.953125 C 161.574219 244 160.75 244.804688 159.703125 244.941406 C 146.945312 246.65625 137.824219 243.996094 133.308594 237.226562 C 125.34375 225.28125 121.757812 225.28125 117.953125 225.28125 C 117.300781 225.28125 117.09375 225.4375 117.089844 225.4375 C 116.96875 225.742188 117.292969 227.519531 119.644531 229.871094 C 124.257812 234.484375 124.425781 234.816406 128.769531 243.503906 C 130.535156 247.03125 137.921875 258.320312 158.621094 254.960938 C 159.324219 254.859375 160.019531 255.050781 160.554688 255.503906 C 161.085938 255.960938 161.398438 256.625 161.398438 257.328125 L 161.398438 274.199219 C 161.398438 275.488281 161.554688 276.824219 161.886719 278.328125 Z M 161.886719 278.328125"/><path fill="#FEFDEF" d="M 237.726562 194.023438 C 233.414062 203.574219 223.949219 211.511719 207.292969 212.84375"/><path fill="#472B29" d="M 207.292969 214.042969 C 206.675781 214.042969 206.152344 213.5625 206.101562 212.941406 C 206.046875 212.28125 206.539062 211.703125 207.199219 211.652344 C 225.421875 210.191406 233.261719 200.988281 236.632812 193.53125 C 236.910156 192.921875 237.613281 192.652344 238.21875 192.929688 C 238.816406 193.203125 239.089844 193.90625 238.816406 194.511719 C 233.679688 205.894531 222.519531 212.824219 207.390625 214.039062 C 207.359375 214.042969 207.328125 214.042969 207.292969 214.042969 Z M 207.292969 214.042969"/><path fill="#FEFDEF" d="M 240.226562 175.097656 C 240.757812 178.703125 240.746094 182.527344 240.082031 186.3125"/><path fill="#472B29" d="M 240.085938 187.507812 C 240.015625 187.507812 239.949219 187.503906 239.875 187.492188 C 239.222656 187.378906 238.789062 186.757812 238.902344 186.105469 C 239.519531 182.589844 239.570312 178.839844 239.042969 175.269531 C 238.941406 174.617188 239.398438 174.003906 240.046875 173.914062 C 240.703125 173.816406 241.3125 174.261719 241.40625 174.921875 C 241.984375 178.796875 241.929688 182.699219 241.257812 186.519531 C 241.164062 187.101562 240.65625 187.507812 240.085938 187.507812 Z M 240.085938 187.507812"/><path fill="#FEFDEF" d="M 231.242188 158.164062 C 234.273438 160.324219 236.730469 163.8125 238.367188 168.007812"/><path fill="#472B29" d="M 238.367188 169.210938 C 237.886719 169.210938 237.4375 168.917969 237.25 168.449219 C 235.652344 164.347656 233.332031 161.128906 230.546875 159.148438 C 230.007812 158.765625 229.878906 158.015625 230.261719 157.476562 C 230.652344 156.933594 231.394531 156.816406 231.933594 157.1875 C 235.105469 159.449219 237.714844 163.042969 239.484375 167.578125 C 239.722656 168.195312 239.414062 168.882812 238.800781 169.128906 C 238.660156 169.179688 238.515625 169.210938 238.367188 169.210938 Z M 238.367188 169.210938"/></svg>