<svg xmlns="http://www.w3.org/2000/svg" width="375" viewBox="0 0 375 375" height="375" version="1.0"><path fill="#FFF" d="M 346.875 187.5 C 346.875 275.625 275.625 346.875 187.5 346.875 C 99.375 346.875 28.125 275.625 28.125 187.5 C 28.125 99.375 99.375 28.125 187.5 28.125 C 275.625 28.125 346.875 99.375 346.875 187.5 Z M 346.875 187.5"/><path fill="#455A64" d="M 159.375 346.875 L 159.375 295.3125 C 159.375 292.5 161.25 290.625 164.0625 290.625 C 166.875 290.625 168.75 292.5 168.75 295.3125 L 168.75 346.875 L 187.5 346.875 L 187.5 285.9375 C 187.5 283.125 189.375 281.25 192.1875 281.25 C 195 281.25 196.875 283.125 196.875 285.9375 L 196.875 346.875 L 215.625 346.875 L 215.625 295.3125 C 215.625 292.5 217.5 290.625 220.3125 290.625 C 223.125 290.625 225 292.5 225 295.3125 L 225 346.875 L 241.875 346.875 C 243.75 344.0625 243.75 341.25 243.75 336.5625 L 243.75 300 C 243.75 279.375 225.9375 251.25 203.4375 251.25 L 180 251.25 C 158.4375 251.25 139.6875 280.3125 139.6875 300 L 139.6875 336.5625 C 139.6875 340.3125 140.625 344.0625 141.5625 346.875 Z M 338.4375 210 C 338.4375 210 326.25 206.25 315.9375 206.25 C 315.9375 206.25 315 206.25 315 206.25 C 304.6875 206.25 287.8125 209.0625 287.8125 209.0625 C 286.875 209.0625 286.875 209.0625 286.875 208.125 C 286.875 207.1875 286.875 207.1875 287.8125 207.1875 C 288.75 207.1875 306.5625 204.375 316.875 204.375 C 327.1875 204.375 339.375 208.125 340.3125 208.125 C 341.25 208.125 341.25 209.0625 341.25 210 C 339.375 209.0625 339.375 210 338.4375 210 Z M 335.625 217.5 C 335.625 217.5 322.5 213.75 311.25 213.75 C 302.8125 213.75 283.125 215.625 282.1875 215.625 C 281.25 215.625 281.25 215.625 281.25 214.6875 C 281.25 213.75 281.25 213.75 282.1875 213.75 C 283.125 213.75 302.8125 211.875 311.25 211.875 C 323.4375 211.875 335.625 215.625 335.625 215.625 C 336.5625 215.625 336.5625 216.5625 336.5625 217.5 C 336.5625 216.5625 336.5625 217.5 335.625 217.5 Z M 35.625 210 C 34.6875 210 34.6875 210 34.6875 209.0625 C 34.6875 208.125 34.6875 208.125 35.625 207.1875 C 43.125 205.3125 58.125 202.5 66.5625 202.5 C 74.0625 202.5 99.375 204.375 100.3125 204.375 C 101.25 204.375 101.25 205.3125 101.25 205.3125 C 101.25 206.25 100.3125 206.25 100.3125 206.25 C 100.3125 206.25 75 204.375 67.5 204.375 C 57.1875 206.25 43.125 208.125 35.625 210 Z M 39.375 224.0625 C 39.375 224.0625 38.4375 224.0625 38.4375 223.125 C 38.4375 222.1875 38.4375 222.1875 38.4375 221.25 C 39.375 221.25 51.5625 213.75 65.625 211.875 C 77.8125 210 103.125 212.8125 105 212.8125 C 105.9375 212.8125 105.9375 213.75 105.9375 213.75 C 105.9375 214.6875 105 214.6875 105 214.6875 C 105 214.6875 78.75 211.875 66.5625 213.75 C 52.5 216.5625 39.375 224.0625 39.375 224.0625 Z M 39.375 224.0625"/><path fill="#455A64" d="M 95.625 182.8125 C 95.625 141.5625 138.75 103.125 192.1875 103.125 C 245.625 103.125 288.75 140.625 288.75 182.8125 C 288.75 225 257.8125 253.125 192.1875 253.125 C 126.5625 253.125 95.625 224.0625 95.625 182.8125 Z M 95.625 182.8125"/><path fill="#455A64" d="M 230.625 115.3125 C 230.625 115.3125 246.5625 93.75 275.625 93.75 C 286.875 105 279.375 138.75 275.625 148.125 Z M 153.75 115.3125 C 153.75 115.3125 137.8125 93.75 108.75 93.75 C 97.5 105 105 138.75 108.75 148.125 Z M 150.9375 299.0625 C 150.9375 299.0625 129.375 299.0625 124.6875 299.0625 C 113.4375 299.0625 103.125 294.375 98.4375 285 C 92.8125 274.6875 88.125 263.4375 74.0625 254.0625 C 71.25 252.1875 73.125 250.3125 77.8125 250.3125 C 82.5 251.25 90.9375 252.1875 97.5 260.625 C 104.0625 269.0625 111.5625 279.375 123.75 279.375 C 135.9375 279.375 149.0625 279.375 156.5625 270.9375 Z M 150.9375 299.0625"/><path fill="#00BCD4" d="M 187.5 0 C 84.375 0 0 84.375 0 187.5 C 0 290.625 84.375 375 187.5 375 C 290.625 375 375 290.625 375 187.5 C 375 84.375 290.625 0 187.5 0 Z M 187.5 337.5 C 105 337.5 37.5 270 37.5 187.5 C 37.5 105 105 37.5 187.5 37.5 C 270 37.5 337.5 105 337.5 187.5 C 337.5 270 270 337.5 187.5 337.5 Z M 187.5 337.5"/></svg>