<svg xmlns="http://www.w3.org/2000/svg" width="375" viewBox="0 0 375 375" height="375" version="1.0"><path fill="#0288D1" d="M 187.5 0 C 184.589844 0 181.679688 0.0703125 178.769531 0.214844 C 175.863281 0.359375 172.960938 0.570312 170.0625 0.855469 C 167.164062 1.144531 164.273438 1.5 161.394531 1.925781 C 158.515625 2.355469 155.644531 2.851562 152.789062 3.421875 C 149.933594 3.988281 147.09375 4.628906 144.269531 5.335938 C 141.445312 6.042969 138.640625 6.820312 135.855469 7.667969 C 133.066406 8.511719 130.304688 9.425781 127.5625 10.410156 C 124.820312 11.390625 122.105469 12.4375 119.414062 13.554688 C 116.726562 14.667969 114.0625 15.847656 111.433594 17.09375 C 108.800781 18.339844 106.199219 19.652344 103.632812 21.023438 C 101.0625 22.398438 98.53125 23.835938 96.035156 25.332031 C 93.535156 26.832031 91.078125 28.390625 88.65625 30.007812 C 86.234375 31.625 83.855469 33.304688 81.515625 35.039062 C 79.175781 36.777344 76.882812 38.566406 74.632812 40.417969 C 72.382812 42.265625 70.175781 44.167969 68.019531 46.125 C 65.863281 48.082031 63.753906 50.089844 61.695312 52.152344 C 59.636719 54.210938 57.628906 56.320312 55.675781 58.480469 C 53.71875 60.640625 51.816406 62.84375 49.96875 65.097656 C 48.121094 67.351562 46.332031 69.648438 44.597656 71.988281 C 42.863281 74.328125 41.1875 76.710938 39.570312 79.132812 C 37.953125 81.554688 36.394531 84.015625 34.898438 86.515625 C 33.402344 89.015625 31.964844 91.550781 30.59375 94.121094 C 29.222656 96.691406 27.910156 99.292969 26.667969 101.925781 C 25.421875 104.5625 24.242188 107.222656 23.128906 109.917969 C 22.015625 112.609375 20.964844 115.328125 19.984375 118.070312 C 19.003906 120.8125 18.089844 123.578125 17.246094 126.367188 C 16.402344 129.15625 15.625 131.964844 14.917969 134.792969 C 14.210938 137.617188 13.570312 140.460938 13.003906 143.316406 C 12.4375 146.175781 11.9375 149.046875 11.511719 151.929688 C 11.082031 154.8125 10.726562 157.703125 10.441406 160.601562 C 10.15625 163.503906 9.941406 166.40625 9.800781 169.316406 C 9.65625 172.230469 9.585938 175.140625 9.585938 178.054688 C 9.585938 180.96875 9.65625 183.882812 9.800781 186.792969 C 9.941406 189.703125 10.15625 192.605469 10.441406 195.507812 C 10.726562 198.40625 11.082031 201.296875 11.511719 204.179688 C 11.9375 207.0625 12.4375 209.933594 13.003906 212.792969 C 13.570312 215.648438 14.210938 218.492188 14.917969 221.320312 C 15.625 224.144531 16.402344 226.953125 17.246094 229.742188 C 18.089844 232.53125 19.003906 235.296875 19.984375 238.039062 C 20.964844 240.785156 22.015625 243.5 23.128906 246.195312 C 24.242188 248.886719 25.421875 251.550781 26.667969 254.183594 C 27.910156 256.816406 29.222656 259.417969 30.59375 261.988281 C 31.964844 264.558594 33.402344 267.09375 34.898438 269.59375 C 36.394531 272.09375 37.953125 274.554688 39.570312 276.976562 C 41.1875 279.398438 42.863281 281.78125 44.597656 284.121094 C 46.332031 286.460938 48.121094 288.757812 49.96875 291.011719 C 51.816406 293.265625 53.71875 295.46875 55.675781 297.628906 C 57.628906 299.789062 59.636719 301.898438 61.695312 303.957031 C 63.753906 306.019531 65.863281 308.027344 68.019531 309.984375 C 70.175781 311.941406 72.382812 313.84375 74.632812 315.691406 C 76.882812 317.542969 79.175781 319.332031 81.515625 321.070312 C 83.855469 322.804688 86.234375 324.484375 88.65625 326.101562 C 91.078125 327.722656 93.535156 329.28125 96.035156 330.777344 C 98.53125 332.277344 101.0625 333.710938 103.632812 335.085938 C 106.199219 336.457031 108.800781 337.769531 111.433594 339.015625 C 114.0625 340.261719 116.726562 341.441406 119.414062 342.554688 C 122.105469 343.671875 124.820312 344.71875 127.5625 345.703125 C 130.304688 346.683594 133.066406 347.597656 135.855469 348.441406 C 138.640625 349.289062 141.445312 350.066406 144.269531 350.773438 C 147.09375 351.480469 149.933594 352.121094 152.789062 352.6875 C 155.644531 353.257812 158.515625 353.753906 161.394531 354.183594 C 164.273438 354.609375 167.164062 354.964844 170.0625 355.253906 C 172.960938 355.539062 175.863281 355.753906 178.769531 355.894531 C 181.679688 356.039062 184.589844 356.109375 187.5 356.109375 C 190.410156 356.109375 193.320312 356.039062 196.230469 355.894531 C 199.136719 355.753906 202.039062 355.539062 204.9375 355.253906 C 207.835938 354.964844 210.726562 354.609375 213.605469 354.183594 C 216.484375 353.753906 219.355469 353.257812 222.210938 352.6875 C 225.066406 352.121094 227.90625 351.480469 230.730469 350.773438 C 233.554688 350.066406 236.359375 349.289062 239.144531 348.441406 C 241.933594 347.597656 244.695312 346.683594 247.4375 345.703125 C 250.179688 344.71875 252.894531 343.671875 255.585938 342.554688 C 258.273438 341.441406 260.9375 340.261719 263.566406 339.015625 C 266.199219 337.769531 268.800781 336.457031 271.367188 335.085938 C 273.9375 333.710938 276.46875 332.277344 278.964844 330.777344 C 281.464844 329.28125 283.921875 327.722656 286.34375 326.101562 C 288.765625 324.484375 291.144531 322.804688 293.484375 321.070312 C 295.824219 319.332031 298.117188 317.542969 300.367188 315.691406 C 302.617188 313.84375 304.824219 311.941406 306.980469 309.984375 C 309.136719 308.027344 311.246094 306.019531 313.304688 303.957031 C 315.363281 301.898438 317.371094 299.789062 319.324219 297.628906 C 321.28125 295.46875 323.183594 293.265625 325.03125 291.011719 C 326.878906 288.757812 328.667969 286.460938 330.402344 284.121094 C 332.136719 281.78125 333.8125 279.398438 335.429688 276.976562 C 337.046875 274.554688 338.605469 272.09375 340.101562 269.59375 C 341.597656 267.09375 343.035156 264.558594 344.40625 261.988281 C 345.777344 259.417969 347.089844 256.816406 348.332031 254.183594 C 349.578125 251.550781 350.757812 248.886719 351.871094 246.195312 C 352.984375 243.5 354.035156 240.785156 355.015625 238.039062 C 355.996094 235.296875 356.910156 232.53125 357.753906 229.742188 C 358.597656 226.953125 359.375 224.144531 360.082031 221.320312 C 360.789062 218.492188 361.429688 215.648438 361.996094 212.792969 C 362.5625 209.933594 363.0625 207.0625 363.488281 204.179688 C 363.917969 201.296875 364.273438 198.40625 364.558594 195.507812 C 364.84375 192.605469 365.058594 189.703125 365.199219 186.792969 C 365.34375 183.882812 365.414062 180.96875 365.414062 178.054688 C 365.414062 175.140625 365.34375 172.230469 365.199219 169.316406 C 365.058594 166.40625 364.84375 163.503906 364.558594 160.601562 C 364.273438 157.703125 363.917969 154.8125 363.488281 151.929688 C 363.0625 149.046875 362.5625 146.175781 361.996094 143.316406 C 361.429688 140.460938 360.789062 137.617188 360.082031 134.792969 C 359.375 131.964844 358.597656 129.15625 357.753906 126.367188 C 356.910156 123.578125 355.996094 120.8125 355.015625 118.070312 C 354.035156 115.328125 352.984375 112.609375 351.871094 109.917969 C 350.757812 107.222656 349.578125 104.5625 348.332031 101.925781 C 347.089844 99.292969 345.777344 96.691406 344.40625 94.121094 C 343.035156 91.550781 341.597656 89.015625 340.101562 86.515625 C 338.605469 84.015625 337.046875 81.554688 335.429688 79.132812 C 333.8125 76.710938 332.136719 74.328125 330.402344 71.988281 C 328.667969 69.648438 326.878906 67.351562 325.03125 65.097656 C 323.183594 62.84375 321.28125 60.640625 319.324219 58.480469 C 317.371094 56.320312 315.363281 54.210938 313.304688 52.152344 C 311.246094 50.089844 309.136719 48.082031 306.980469 46.125 C 304.824219 44.167969 302.617188 42.265625 300.367188 40.417969 C 298.117188 38.566406 295.824219 36.777344 293.484375 35.039062 C 291.144531 33.304688 288.765625 31.625 286.34375 30.007812 C 283.921875 28.390625 281.464844 26.832031 278.964844 25.332031 C 276.46875 23.835938 273.9375 22.398438 271.367188 21.023438 C 268.800781 19.652344 266.199219 18.339844 263.566406 17.09375 C 260.9375 15.847656 258.273438 14.667969 255.585938 13.554688 C 252.894531 12.4375 250.179688 11.390625 247.4375 10.410156 C 244.695312 9.425781 241.933594 8.511719 239.144531 7.667969 C 236.359375 6.820312 233.554688 6.042969 230.730469 5.335938 C 227.90625 4.628906 225.066406 3.988281 222.210938 3.421875 C 219.355469 2.851562 216.484375 2.355469 213.605469 1.925781 C 210.726562 1.5 207.835938 1.144531 204.9375 0.855469 C 202.039062 0.570312 199.136719 0.359375 196.230469 0.214844 C 193.320312 0.0703125 190.410156 0 187.5 0 Z M 187.5 0"/><path fill="#FFF" d="M 98.542969 133.542969 L 134.125 133.542969 L 134.125 267.082031 L 98.542969 267.082031 Z M 116.226562 115.734375 L 116.03125 115.734375 C 105.410156 115.734375 98.542969 107.8125 98.542969 97.921875 C 98.542969 87.816406 105.625 80.125 116.433594 80.125 C 127.257812 80.125 133.921875 87.816406 134.125 97.921875 C 134.125 107.8125 127.257812 115.734375 116.226562 115.734375 Z M 285.351562 182.507812 C 285.351562 155.460938 263.453125 133.542969 236.425781 133.542969 C 219.863281 133.542969 205.246094 141.804688 196.394531 154.410156 L 196.394531 133.542969 L 160.8125 133.542969 L 160.8125 267.082031 L 196.394531 267.082031 L 196.394531 195.859375 C 196.394531 181.109375 208.34375 169.152344 223.082031 169.152344 C 237.824219 169.152344 249.769531 181.109375 249.769531 195.859375 L 249.769531 267.082031 L 285.351562 267.082031 C 285.351562 267.082031 285.351562 186.253906 285.351562 182.507812 Z M 285.351562 182.507812"/></svg>