<svg xmlns="http://www.w3.org/2000/svg" width="375" viewBox="0 0 375 375" height="375" version="1.0"><path fill="#DFE8F4" d="M 375 187.5 C 375 190.570312 374.925781 193.636719 374.773438 196.699219 C 374.625 199.765625 374.398438 202.824219 374.097656 205.878906 C 373.796875 208.933594 373.421875 211.976562 372.96875 215.011719 C 372.519531 218.046875 371.996094 221.070312 371.398438 224.078125 C 370.796875 227.089844 370.125 230.082031 369.378906 233.058594 C 368.636719 236.035156 367.816406 238.992188 366.925781 241.929688 C 366.035156 244.863281 365.074219 247.777344 364.039062 250.667969 C 363.003906 253.554688 361.902344 256.417969 360.726562 259.253906 C 359.554688 262.089844 358.308594 264.894531 356.996094 267.667969 C 355.6875 270.441406 354.308594 273.179688 352.859375 275.886719 C 351.414062 278.59375 349.902344 281.261719 348.324219 283.894531 C 346.746094 286.527344 345.105469 289.117188 343.402344 291.667969 C 341.695312 294.222656 339.929688 296.730469 338.101562 299.195312 C 336.273438 301.660156 334.386719 304.078125 332.441406 306.449219 C 330.492188 308.820312 328.488281 311.144531 326.429688 313.417969 C 324.367188 315.691406 322.253906 317.914062 320.082031 320.082031 C 317.914062 322.253906 315.691406 324.367188 313.417969 326.429688 C 311.144531 328.488281 308.820312 330.492188 306.449219 332.441406 C 304.078125 334.386719 301.660156 336.273438 299.195312 338.101562 C 296.730469 339.929688 294.222656 341.695312 291.667969 343.402344 C 289.117188 345.105469 286.527344 346.746094 283.894531 348.324219 C 281.261719 349.902344 278.59375 351.414062 275.886719 352.859375 C 273.179688 354.308594 270.441406 355.6875 267.667969 356.996094 C 264.894531 358.308594 262.089844 359.554688 259.253906 360.726562 C 256.417969 361.902344 253.554688 363.003906 250.667969 364.039062 C 247.777344 365.074219 244.863281 366.035156 241.929688 366.925781 C 238.992188 367.816406 236.035156 368.636719 233.058594 369.378906 C 230.082031 370.125 227.089844 370.796875 224.078125 371.398438 C 221.070312 371.996094 218.046875 372.519531 215.011719 372.96875 C 211.976562 373.421875 208.933594 373.796875 205.878906 374.097656 C 202.824219 374.398438 199.765625 374.625 196.699219 374.773438 C 193.636719 374.925781 190.570312 375 187.5 375 C 184.429688 375 181.363281 374.925781 178.300781 374.773438 C 175.234375 374.625 172.175781 374.398438 169.121094 374.097656 C 166.066406 373.796875 163.023438 373.421875 159.988281 372.96875 C 156.953125 372.519531 153.929688 371.996094 150.921875 371.398438 C 147.910156 370.796875 144.917969 370.125 141.941406 369.378906 C 138.964844 368.636719 136.007812 367.816406 133.070312 366.925781 C 130.136719 366.035156 127.222656 365.074219 124.332031 364.039062 C 121.445312 363.003906 118.582031 361.902344 115.746094 360.726562 C 112.910156 359.554688 110.105469 358.308594 107.332031 356.996094 C 104.558594 355.6875 101.820312 354.308594 99.113281 352.859375 C 96.40625 351.414062 93.738281 349.902344 91.105469 348.324219 C 88.472656 346.746094 85.882812 345.105469 83.332031 343.402344 C 80.777344 341.695312 78.269531 339.929688 75.804688 338.101562 C 73.339844 336.273438 70.921875 334.386719 68.550781 332.441406 C 66.179688 330.492188 63.855469 328.488281 61.582031 326.429688 C 59.308594 324.367188 57.085938 322.253906 54.917969 320.082031 C 52.746094 317.914062 50.632812 315.691406 48.570312 313.417969 C 46.511719 311.144531 44.507812 308.820312 42.558594 306.449219 C 40.613281 304.078125 38.726562 301.660156 36.898438 299.195312 C 35.070312 296.730469 33.304688 294.222656 31.597656 291.667969 C 29.894531 289.117188 28.253906 286.527344 26.675781 283.894531 C 25.097656 281.261719 23.585938 278.59375 22.140625 275.886719 C 20.691406 273.179688 19.3125 270.441406 18.003906 267.667969 C 16.691406 264.894531 15.445312 262.089844 14.273438 259.253906 C 13.097656 256.417969 11.996094 253.554688 10.960938 250.667969 C 9.925781 247.777344 8.964844 244.863281 8.074219 241.929688 C 7.183594 238.992188 6.363281 236.035156 5.621094 233.058594 C 4.875 230.082031 4.203125 227.089844 3.601562 224.078125 C 3.003906 221.070312 2.480469 218.046875 2.03125 215.011719 C 1.578125 211.976562 1.203125 208.933594 0.902344 205.878906 C 0.601562 202.824219 0.375 199.765625 0.226562 196.699219 C 0.0742188 193.636719 0 190.570312 0 187.5 C 0 184.429688 0.0742188 181.363281 0.226562 178.300781 C 0.375 175.234375 0.601562 172.175781 0.902344 169.121094 C 1.203125 166.066406 1.578125 163.023438 2.03125 159.988281 C 2.480469 156.953125 3.003906 153.929688 3.601562 150.921875 C 4.203125 147.910156 4.875 144.917969 5.621094 141.941406 C 6.363281 138.964844 7.183594 136.007812 8.074219 133.070312 C 8.964844 130.136719 9.925781 127.222656 10.960938 124.332031 C 11.996094 121.445312 13.097656 118.582031 14.273438 115.746094 C 15.445312 112.910156 16.691406 110.105469 18.003906 107.332031 C 19.3125 104.558594 20.691406 101.820312 22.140625 99.113281 C 23.585938 96.40625 25.097656 93.738281 26.675781 91.105469 C 28.253906 88.472656 29.894531 85.882812 31.597656 83.332031 C 33.304688 80.777344 35.070312 78.269531 36.898438 75.804688 C 38.726562 73.339844 40.613281 70.921875 42.558594 68.550781 C 44.507812 66.179688 46.511719 63.855469 48.570312 61.582031 C 50.632812 59.308594 52.746094 57.085938 54.917969 54.917969 C 57.085938 52.746094 59.308594 50.632812 61.582031 48.570312 C 63.855469 46.511719 66.179688 44.507812 68.550781 42.558594 C 70.921875 40.613281 73.339844 38.726562 75.804688 36.898438 C 78.269531 35.070312 80.777344 33.304688 83.332031 31.597656 C 85.882812 29.894531 88.472656 28.253906 91.105469 26.675781 C 93.738281 25.097656 96.40625 23.585938 99.113281 22.140625 C 101.820312 20.691406 104.558594 19.3125 107.332031 18.003906 C 110.105469 16.691406 112.910156 15.445312 115.746094 14.273438 C 118.582031 13.097656 121.445312 11.996094 124.332031 10.960938 C 127.222656 9.925781 130.136719 8.964844 133.070312 8.074219 C 136.007812 7.183594 138.964844 6.363281 141.941406 5.617188 C 144.917969 4.875 147.910156 4.203125 150.921875 3.601562 C 153.929688 3.003906 156.953125 2.480469 159.988281 2.03125 C 163.023438 1.578125 166.066406 1.203125 169.121094 0.902344 C 172.175781 0.601562 175.234375 0.375 178.300781 0.226562 C 181.363281 0.0742188 184.429688 0 187.5 0 C 190.570312 0 193.636719 0.0742188 196.699219 0.226562 C 199.765625 0.375 202.824219 0.601562 205.878906 0.902344 C 208.933594 1.203125 211.976562 1.578125 215.011719 2.03125 C 218.046875 2.480469 221.070312 3.003906 224.078125 3.601562 C 227.089844 4.203125 230.082031 4.875 233.058594 5.617188 C 236.035156 6.363281 238.992188 7.183594 241.929688 8.074219 C 244.863281 8.964844 247.777344 9.925781 250.667969 10.960938 C 253.554688 11.996094 256.417969 13.097656 259.253906 14.273438 C 262.089844 15.445312 264.894531 16.691406 267.667969 18.003906 C 270.441406 19.3125 273.179688 20.691406 275.886719 22.140625 C 278.59375 23.585938 281.261719 25.097656 283.894531 26.675781 C 286.527344 28.253906 289.117188 29.894531 291.667969 31.597656 C 294.222656 33.304688 296.730469 35.070312 299.195312 36.898438 C 301.660156 38.726562 304.078125 40.613281 306.449219 42.558594 C 308.820312 44.507812 311.144531 46.511719 313.417969 48.570312 C 315.691406 50.632812 317.914062 52.746094 320.082031 54.917969 C 322.253906 57.085938 324.367188 59.308594 326.429688 61.582031 C 328.488281 63.855469 330.492188 66.179688 332.441406 68.550781 C 334.386719 70.921875 336.273438 73.339844 338.101562 75.804688 C 339.929688 78.269531 341.695312 80.777344 343.402344 83.332031 C 345.105469 85.882812 346.746094 88.472656 348.324219 91.105469 C 349.902344 93.738281 351.414062 96.40625 352.859375 99.113281 C 354.308594 101.820312 355.6875 104.558594 356.996094 107.332031 C 358.308594 110.105469 359.554688 112.910156 360.726562 115.746094 C 361.902344 118.582031 363.003906 121.445312 364.039062 124.332031 C 365.074219 127.222656 366.035156 130.136719 366.925781 133.070312 C 367.816406 136.007812 368.636719 138.964844 369.378906 141.941406 C 370.125 144.917969 370.796875 147.910156 371.398438 150.921875 C 371.996094 153.929688 372.519531 156.953125 372.96875 159.988281 C 373.421875 163.023438 373.796875 166.066406 374.097656 169.121094 C 374.398438 172.175781 374.625 175.234375 374.773438 178.300781 C 374.925781 181.363281 375 184.429688 375 187.5 Z M 375 187.5"/><path fill="#FFF" d="M 307.5 187.5 C 307.5 189.464844 307.453125 191.425781 307.355469 193.386719 C 307.257812 195.351562 307.113281 197.308594 306.921875 199.261719 C 306.730469 201.214844 306.488281 203.164062 306.203125 205.109375 C 305.914062 207.050781 305.578125 208.984375 305.195312 210.910156 C 304.8125 212.835938 304.382812 214.753906 303.902344 216.65625 C 303.425781 218.5625 302.902344 220.453125 302.332031 222.335938 C 301.761719 224.214844 301.148438 226.078125 300.484375 227.925781 C 299.824219 229.777344 299.117188 231.609375 298.367188 233.421875 C 297.613281 235.238281 296.820312 237.03125 295.980469 238.804688 C 295.140625 240.582031 294.257812 242.335938 293.332031 244.066406 C 292.40625 245.800781 291.4375 247.507812 290.425781 249.191406 C 289.417969 250.875 288.367188 252.535156 287.277344 254.167969 C 286.183594 255.800781 285.054688 257.40625 283.886719 258.984375 C 282.714844 260.5625 281.507812 262.109375 280.261719 263.628906 C 279.015625 265.144531 277.734375 266.632812 276.414062 268.085938 C 275.09375 269.542969 273.742188 270.964844 272.351562 272.351562 C 270.964844 273.742188 269.542969 275.09375 268.085938 276.414062 C 266.632812 277.734375 265.144531 279.015625 263.628906 280.261719 C 262.109375 281.507812 260.5625 282.714844 258.984375 283.886719 C 257.40625 285.054688 255.800781 286.183594 254.167969 287.277344 C 252.535156 288.367188 250.875 289.417969 249.191406 290.425781 C 247.507812 291.4375 245.800781 292.40625 244.066406 293.332031 C 242.335938 294.257812 240.582031 295.140625 238.804688 295.980469 C 237.03125 296.820312 235.238281 297.613281 233.421875 298.367188 C 231.609375 299.117188 229.777344 299.824219 227.925781 300.484375 C 226.078125 301.148438 224.214844 301.761719 222.335938 302.332031 C 220.453125 302.902344 218.5625 303.425781 216.65625 303.902344 C 214.753906 304.382812 212.835938 304.8125 210.910156 305.195312 C 208.984375 305.578125 207.050781 305.914062 205.109375 306.203125 C 203.164062 306.488281 201.214844 306.730469 199.261719 306.921875 C 197.308594 307.113281 195.351562 307.257812 193.386719 307.355469 C 191.425781 307.453125 189.464844 307.5 187.5 307.5 C 185.535156 307.5 183.574219 307.453125 181.613281 307.355469 C 179.648438 307.257812 177.691406 307.113281 175.738281 306.921875 C 173.785156 306.730469 171.835938 306.488281 169.890625 306.203125 C 167.949219 305.914062 166.015625 305.578125 164.089844 305.195312 C 162.164062 304.8125 160.246094 304.382812 158.34375 303.902344 C 156.4375 303.425781 154.546875 302.902344 152.664062 302.332031 C 150.785156 301.761719 148.921875 301.148438 147.074219 300.484375 C 145.222656 299.824219 143.390625 299.117188 141.578125 298.367188 C 139.761719 297.613281 137.96875 296.820312 136.195312 295.980469 C 134.417969 295.140625 132.664062 294.257812 130.933594 293.332031 C 129.199219 292.40625 127.492188 291.4375 125.808594 290.425781 C 124.125 289.417969 122.464844 288.367188 120.832031 287.277344 C 119.199219 286.183594 117.59375 285.054688 116.015625 283.886719 C 114.4375 282.714844 112.890625 281.507812 111.371094 280.261719 C 109.855469 279.015625 108.367188 277.734375 106.914062 276.414062 C 105.457031 275.09375 104.035156 273.742188 102.648438 272.351562 C 101.257812 270.964844 99.90625 269.542969 98.585938 268.085938 C 97.265625 266.632812 95.984375 265.144531 94.738281 263.628906 C 93.492188 262.109375 92.285156 260.5625 91.113281 258.984375 C 89.945312 257.40625 88.816406 255.800781 87.722656 254.167969 C 86.632812 252.535156 85.582031 250.875 84.574219 249.191406 C 83.5625 247.507812 82.59375 245.800781 81.667969 244.066406 C 80.742188 242.335938 79.859375 240.582031 79.019531 238.804688 C 78.179688 237.03125 77.386719 235.238281 76.632812 233.421875 C 75.882812 231.609375 75.175781 229.777344 74.515625 227.925781 C 73.851562 226.078125 73.238281 224.214844 72.667969 222.335938 C 72.097656 220.453125 71.574219 218.5625 71.097656 216.65625 C 70.617188 214.753906 70.1875 212.835938 69.804688 210.910156 C 69.421875 208.984375 69.085938 207.050781 68.796875 205.109375 C 68.511719 203.164062 68.269531 201.214844 68.078125 199.261719 C 67.886719 197.308594 67.742188 195.351562 67.644531 193.386719 C 67.546875 191.425781 67.5 189.464844 67.5 187.5 C 67.5 185.535156 67.546875 183.574219 67.644531 181.613281 C 67.742188 179.648438 67.886719 177.691406 68.078125 175.738281 C 68.269531 173.785156 68.511719 171.835938 68.796875 169.890625 C 69.085938 167.949219 69.421875 166.015625 69.804688 164.089844 C 70.1875 162.164062 70.617188 160.246094 71.097656 158.34375 C 71.574219 156.4375 72.097656 154.546875 72.667969 152.664062 C 73.238281 150.785156 73.851562 148.921875 74.515625 147.074219 C 75.175781 145.222656 75.882812 143.390625 76.632812 141.578125 C 77.386719 139.761719 78.179688 137.96875 79.019531 136.195312 C 79.859375 134.417969 80.742188 132.664062 81.667969 130.933594 C 82.59375 129.199219 83.5625 127.492188 84.574219 125.808594 C 85.582031 124.125 86.632812 122.464844 87.722656 120.832031 C 88.816406 119.199219 89.945312 117.59375 91.113281 116.015625 C 92.285156 114.4375 93.492188 112.890625 94.738281 111.371094 C 95.984375 109.855469 97.265625 108.367188 98.585938 106.914062 C 99.90625 105.457031 101.257812 104.035156 102.648438 102.648438 C 104.035156 101.257812 105.457031 99.90625 106.914062 98.585938 C 108.367188 97.265625 109.855469 95.984375 111.371094 94.738281 C 112.890625 93.492188 114.4375 92.285156 116.015625 91.113281 C 117.59375 89.945312 119.199219 88.816406 120.832031 87.722656 C 122.464844 86.632812 124.125 85.582031 125.808594 84.574219 C 127.492188 83.5625 129.199219 82.59375 130.933594 81.667969 C 132.664062 80.742188 134.417969 79.859375 136.191406 79.019531 C 137.96875 78.179688 139.761719 77.386719 141.578125 76.632812 C 143.390625 75.882812 145.222656 75.175781 147.074219 74.515625 C 148.921875 73.851562 150.785156 73.238281 152.664062 72.667969 C 154.546875 72.097656 156.4375 71.574219 158.34375 71.097656 C 160.246094 70.617188 162.164062 70.1875 164.089844 69.804688 C 166.015625 69.421875 167.949219 69.085938 169.890625 68.800781 C 171.835938 68.511719 173.785156 68.269531 175.738281 68.078125 C 177.691406 67.886719 179.648438 67.742188 181.613281 67.644531 C 183.574219 67.546875 185.535156 67.5 187.5 67.5 C 189.464844 67.5 191.425781 67.546875 193.386719 67.644531 C 195.351562 67.742188 197.308594 67.886719 199.261719 68.078125 C 201.214844 68.269531 203.164062 68.511719 205.109375 68.800781 C 207.050781 69.085938 208.984375 69.421875 210.910156 69.804688 C 212.835938 70.1875 214.753906 70.617188 216.65625 71.097656 C 218.5625 71.574219 220.453125 72.097656 222.335938 72.667969 C 224.214844 73.238281 226.078125 73.851562 227.925781 74.515625 C 229.777344 75.175781 231.609375 75.882812 233.421875 76.632812 C 235.238281 77.386719 237.03125 78.179688 238.804688 79.019531 C 240.582031 79.859375 242.335938 80.742188 244.066406 81.667969 C 245.800781 82.59375 247.507812 83.5625 249.191406 84.574219 C 250.875 85.582031 252.535156 86.632812 254.167969 87.722656 C 255.800781 88.816406 257.40625 89.945312 258.984375 91.113281 C 260.5625 92.285156 262.109375 93.492188 263.628906 94.738281 C 265.144531 95.984375 266.632812 97.265625 268.085938 98.585938 C 269.542969 99.90625 270.964844 101.257812 272.351562 102.648438 C 273.742188 104.035156 275.09375 105.457031 276.414062 106.914062 C 277.734375 108.367188 279.015625 109.855469 280.261719 111.371094 C 281.507812 112.890625 282.714844 114.4375 283.886719 116.015625 C 285.054688 117.59375 286.183594 119.199219 287.277344 120.832031 C 288.367188 122.464844 289.417969 124.125 290.425781 125.808594 C 291.4375 127.492188 292.40625 129.199219 293.332031 130.933594 C 294.257812 132.664062 295.140625 134.417969 295.980469 136.191406 C 296.820312 137.96875 297.613281 139.761719 298.367188 141.578125 C 299.117188 143.390625 299.824219 145.222656 300.484375 147.074219 C 301.148438 148.921875 301.761719 150.785156 302.332031 152.664062 C 302.902344 154.546875 303.425781 156.4375 303.902344 158.34375 C 304.382812 160.246094 304.8125 162.164062 305.195312 164.089844 C 305.578125 166.015625 305.914062 167.949219 306.203125 169.890625 C 306.488281 171.835938 306.730469 173.785156 306.921875 175.738281 C 307.113281 177.691406 307.257812 179.648438 307.355469 181.613281 C 307.453125 183.574219 307.5 185.535156 307.5 187.5 Z M 307.5 187.5"/><path fill="#0795FF" d="M 187.5 0 C 184.429688 0 181.363281 0.0742188 178.300781 0.226562 C 175.234375 0.375 172.175781 0.601562 169.121094 0.902344 C 166.066406 1.203125 163.023438 1.578125 159.988281 2.03125 C 156.953125 2.480469 153.929688 3.003906 150.921875 3.601562 C 147.910156 4.203125 144.917969 4.875 141.941406 5.617188 C 138.964844 6.363281 136.007812 7.183594 133.070312 8.074219 C 130.136719 8.964844 127.222656 9.925781 124.332031 10.960938 C 121.445312 11.996094 118.582031 13.097656 115.746094 14.273438 C 112.910156 15.445312 110.105469 16.691406 107.332031 18.003906 C 104.558594 19.3125 101.820312 20.691406 99.113281 22.140625 C 96.40625 23.585938 93.738281 25.097656 91.105469 26.675781 C 88.472656 28.253906 85.882812 29.894531 83.332031 31.597656 C 80.777344 33.304688 78.269531 35.070312 75.804688 36.898438 C 73.339844 38.726562 70.921875 40.613281 68.550781 42.558594 C 66.179688 44.507812 63.855469 46.511719 61.582031 48.570312 C 59.308594 50.632812 57.085938 52.746094 54.917969 54.917969 C 52.746094 57.085938 50.632812 59.308594 48.570312 61.582031 C 46.511719 63.855469 44.507812 66.179688 42.558594 68.550781 C 40.613281 70.921875 38.726562 73.339844 36.898438 75.804688 C 35.070312 78.269531 33.304688 80.777344 31.597656 83.332031 C 29.894531 85.882812 28.253906 88.472656 26.675781 91.105469 C 25.097656 93.738281 23.585938 96.40625 22.140625 99.113281 C 20.691406 101.820312 19.3125 104.558594 18.003906 107.332031 C 16.691406 110.105469 15.445312 112.910156 14.273438 115.746094 C 13.097656 118.582031 11.996094 121.445312 10.960938 124.332031 C 9.925781 127.222656 8.964844 130.136719 8.074219 133.070312 C 7.183594 136.007812 6.363281 138.964844 5.621094 141.941406 C 4.875 144.917969 4.203125 147.910156 3.601562 150.921875 C 3.003906 153.929688 2.480469 156.953125 2.03125 159.988281 C 1.578125 163.023438 1.203125 166.066406 0.902344 169.121094 C 0.601562 172.175781 0.375 175.234375 0.226562 178.300781 C 0.0742188 181.363281 0 184.429688 0 187.5 C 0 190.570312 0.0742188 193.636719 0.226562 196.699219 C 0.375 199.765625 0.601562 202.824219 0.902344 205.878906 C 1.203125 208.933594 1.578125 211.976562 2.03125 215.011719 C 2.480469 218.046875 3.003906 221.070312 3.601562 224.078125 C 4.203125 227.089844 4.875 230.082031 5.621094 233.058594 C 6.363281 236.035156 7.183594 238.992188 8.074219 241.929688 C 8.964844 244.863281 9.925781 247.777344 10.960938 250.667969 C 11.996094 253.554688 13.097656 256.417969 14.273438 259.253906 C 15.445312 262.089844 16.691406 264.894531 18.003906 267.667969 C 19.3125 270.441406 20.691406 273.179688 22.140625 275.886719 C 23.585938 278.59375 25.097656 281.261719 26.675781 283.894531 C 28.253906 286.527344 29.894531 289.117188 31.597656 291.667969 C 33.304688 294.222656 35.070312 296.730469 36.898438 299.195312 C 38.726562 301.660156 40.613281 304.078125 42.558594 306.449219 C 44.507812 308.820312 46.511719 311.144531 48.570312 313.417969 C 50.632812 315.691406 52.746094 317.914062 54.917969 320.082031 C 57.085938 322.253906 59.308594 324.367188 61.582031 326.429688 C 63.855469 328.488281 66.179688 330.492188 68.550781 332.441406 C 70.921875 334.386719 73.339844 336.273438 75.804688 338.101562 C 78.269531 339.929688 80.777344 341.695312 83.332031 343.402344 C 85.882812 345.105469 88.472656 346.746094 91.105469 348.324219 C 93.738281 349.902344 96.40625 351.414062 99.113281 352.859375 C 101.820312 354.308594 104.558594 355.6875 107.332031 356.996094 C 110.105469 358.308594 112.910156 359.554688 115.746094 360.726562 C 118.582031 361.902344 121.445312 363.003906 124.332031 364.039062 C 127.222656 365.074219 130.136719 366.035156 133.070312 366.925781 C 136.007812 367.816406 138.964844 368.636719 141.941406 369.378906 C 144.917969 370.125 147.910156 370.796875 150.921875 371.398438 C 153.929688 371.996094 156.953125 372.519531 159.988281 372.96875 C 163.023438 373.421875 166.066406 373.796875 169.121094 374.097656 C 172.175781 374.398438 175.234375 374.625 178.300781 374.773438 C 181.363281 374.925781 184.429688 375 187.5 375 C 190.570312 375 193.636719 374.925781 196.699219 374.773438 C 199.765625 374.625 202.824219 374.398438 205.878906 374.097656 C 208.933594 373.796875 211.976562 373.421875 215.011719 372.96875 C 218.046875 372.519531 221.070312 371.996094 224.078125 371.398438 C 227.089844 370.796875 230.082031 370.125 233.058594 369.378906 C 236.035156 368.636719 238.992188 367.816406 241.929688 366.925781 C 244.863281 366.035156 247.777344 365.074219 250.667969 364.039062 C 253.554688 363.003906 256.417969 361.902344 259.253906 360.726562 C 262.089844 359.554688 264.894531 358.308594 267.667969 356.996094 C 270.441406 355.6875 273.179688 354.308594 275.886719 352.859375 C 278.59375 351.414062 281.261719 349.902344 283.894531 348.324219 C 286.527344 346.746094 289.117188 345.105469 291.667969 343.402344 C 294.222656 341.695312 296.730469 339.929688 299.195312 338.101562 C 301.660156 336.273438 304.078125 334.386719 306.449219 332.441406 C 308.820312 330.492188 311.144531 328.488281 313.417969 326.429688 C 315.691406 324.367188 317.914062 322.253906 320.082031 320.082031 C 322.253906 317.914062 324.367188 315.691406 326.429688 313.417969 C 328.488281 311.144531 330.492188 308.820312 332.441406 306.449219 C 334.386719 304.078125 336.273438 301.660156 338.101562 299.195312 C 339.929688 296.730469 341.695312 294.222656 343.402344 291.667969 C 345.105469 289.117188 346.746094 286.527344 348.324219 283.894531 C 349.902344 281.261719 351.414062 278.59375 352.859375 275.886719 C 354.308594 273.179688 355.6875 270.441406 356.996094 267.667969 C 358.308594 264.894531 359.554688 262.089844 360.726562 259.253906 C 361.902344 256.417969 363.003906 253.554688 364.039062 250.667969 C 365.074219 247.777344 366.035156 244.863281 366.925781 241.929688 C 367.816406 238.992188 368.636719 236.035156 369.378906 233.058594 C 370.125 230.082031 370.796875 227.089844 371.398438 224.078125 C 371.996094 221.070312 372.519531 218.046875 372.96875 215.011719 C 373.421875 211.976562 373.796875 208.933594 374.097656 205.878906 C 374.398438 202.824219 374.625 199.765625 374.773438 196.699219 C 374.925781 193.636719 375 190.570312 375 187.5 C 375 184.429688 374.925781 181.363281 374.773438 178.300781 C 374.625 175.234375 374.398438 172.175781 374.097656 169.121094 C 373.796875 166.066406 373.421875 163.023438 372.96875 159.988281 C 372.519531 156.953125 371.996094 153.929688 371.398438 150.921875 C 370.796875 147.910156 370.125 144.917969 369.378906 141.941406 C 368.636719 138.964844 367.816406 136.007812 366.925781 133.070312 C 366.035156 130.136719 365.074219 127.222656 364.039062 124.332031 C 363.003906 121.445312 361.902344 118.582031 360.726562 115.746094 C 359.554688 112.910156 358.308594 110.105469 356.996094 107.332031 C 355.6875 104.558594 354.308594 101.820312 352.859375 99.113281 C 351.414062 96.40625 349.902344 93.738281 348.324219 91.105469 C 346.746094 88.472656 345.105469 85.882812 343.402344 83.332031 C 341.695312 80.777344 339.929688 78.269531 338.101562 75.804688 C 336.273438 73.339844 334.386719 70.921875 332.441406 68.550781 C 330.492188 66.179688 328.488281 63.855469 326.429688 61.582031 C 324.367188 59.308594 322.253906 57.085938 320.082031 54.917969 C 317.914062 52.746094 315.691406 50.632812 313.417969 48.570312 C 311.144531 46.511719 308.820312 44.507812 306.449219 42.558594 C 304.078125 40.613281 301.660156 38.726562 299.195312 36.898438 C 296.730469 35.070312 294.222656 33.304688 291.667969 31.597656 C 289.117188 29.894531 286.527344 28.253906 283.894531 26.675781 C 281.261719 25.097656 278.59375 23.585938 275.886719 22.140625 C 273.179688 20.691406 270.441406 19.3125 267.667969 18.003906 C 264.894531 16.691406 262.089844 15.445312 259.253906 14.273438 C 256.417969 13.097656 253.554688 11.996094 250.667969 10.960938 C 247.777344 9.925781 244.863281 8.964844 241.929688 8.074219 C 238.992188 7.183594 236.035156 6.363281 233.058594 5.617188 C 230.082031 4.875 227.089844 4.203125 224.078125 3.601562 C 221.070312 3.003906 218.046875 2.480469 215.011719 2.03125 C 211.976562 1.578125 208.933594 1.203125 205.878906 0.902344 C 202.824219 0.601562 199.765625 0.375 196.699219 0.226562 C 193.636719 0.0742188 190.570312 0 187.5 0 Z M 320.3125 161.40625 L 270.3125 161.40625 C 268.917969 130.347656 263.582031 99.984375 254.296875 70.3125 C 258.503906 72.703125 262.570312 75.308594 266.5 78.132812 C 270.425781 80.957031 274.191406 83.980469 277.796875 87.207031 C 281.402344 90.433594 284.824219 93.84375 288.0625 97.4375 C 291.304688 101.027344 294.34375 104.785156 297.183594 108.699219 C 300.019531 112.617188 302.644531 116.675781 305.046875 120.871094 C 307.453125 125.070312 309.628906 129.382812 311.574219 133.8125 C 313.515625 138.242188 315.21875 142.765625 316.679688 147.375 C 318.140625 151.988281 319.351562 156.664062 320.3125 161.40625 Z M 187.5 322.109375 C 178.515625 315.078125 160.625 278.046875 156.71875 213.4375 L 218.28125 213.4375 C 214.296875 278.046875 196.484375 315.078125 187.5 322.109375 Z M 156.640625 161.40625 C 160.546875 96.796875 178.4375 59.84375 187.421875 52.734375 C 196.484375 59.765625 214.296875 96.796875 218.203125 161.40625 Z M 120.546875 70.3125 C 111.402344 100.132812 106.191406 130.628906 104.921875 161.796875 L 54.6875 161.796875 C 55.628906 157.042969 56.824219 152.347656 58.269531 147.722656 C 59.714844 143.09375 61.402344 138.554688 63.335938 134.109375 C 65.265625 129.664062 67.429688 125.332031 69.824219 121.117188 C 72.222656 116.902344 74.835938 112.828125 77.667969 108.894531 C 80.5 104.957031 83.535156 101.1875 86.773438 97.578125 C 90.007812 93.96875 93.429688 90.539062 97.035156 87.296875 C 100.636719 84.054688 104.40625 81.015625 108.335938 78.175781 C 112.265625 75.335938 116.335938 72.714844 120.546875 70.3125 Z M 54.6875 213.4375 L 104.609375 213.4375 C 105.867188 244.605469 111.074219 275.101562 120.234375 304.921875 C 116.035156 302.515625 111.972656 299.890625 108.054688 297.050781 C 104.136719 294.207031 100.382812 291.164062 96.789062 287.917969 C 93.195312 284.675781 89.789062 281.246094 86.5625 277.636719 C 83.339844 274.027344 80.316406 270.253906 77.5 266.316406 C 74.679688 262.382812 72.078125 258.308594 69.695312 254.09375 C 67.3125 249.878906 65.164062 245.550781 63.246094 241.105469 C 61.328125 236.660156 59.65625 232.125 58.226562 227.5 C 56.792969 222.875 55.613281 218.1875 54.6875 213.4375 Z M 254.296875 304.6875 C 263.609375 274.96875 268.945312 244.550781 270.3125 213.4375 L 320.3125 213.4375 C 319.363281 218.1875 318.160156 222.871094 316.707031 227.492188 C 315.25 232.113281 313.554688 236.644531 311.617188 241.085938 C 309.675781 245.523438 307.503906 249.847656 305.101562 254.050781 C 302.699219 258.257812 300.078125 262.324219 297.238281 266.25 C 294.398438 270.171875 291.355469 273.933594 288.113281 277.535156 C 284.871094 281.132812 281.445312 284.546875 277.835938 287.777344 C 274.226562 291.007812 270.453125 294.039062 266.519531 296.863281 C 262.585938 299.691406 258.511719 302.296875 254.296875 304.6875 Z M 254.296875 304.6875"/></svg>